<svg xmlns="http://www.w3.org/2000/svg" width="297.188" height="276.037" viewBox="0 0 297.188 276.037">
  <path id="Path_551" data-name="Path 551" d="M968.056,797.442c.006-.119.018-.238.018-.359s-.012-.24-.018-.36.017-.216.017-.327c0-.132-.012-.261-.02-.392,0-.1.015-.195.015-.294,0-.144-.012-.284-.021-.426,0-.087.013-.173.013-.261,0-.154-.012-.306-.022-.457,0-.077.011-.152.011-.229,0-.166-.012-.328-.025-.491,0-.066.01-.13.01-.2,0-.176-.012-.349-.027-.523,0-.054.009-.109.009-.163,0-.189-.012-.373-.028-.556,0-.044.006-.086.006-.131,0-.2-.012-.393-.03-.587,0-.033.005-.066.005-.1,0-.21-.012-.417-.032-.621,0-.021,0-.043,0-.065a6.3,6.3,0,0,0-.033-.653l0-.033a6.632,6.632,0,0,0-.035-.67v-.016a6.336,6.336,0,0,0-.038-.686,6.678,6.678,0,0,0-.043-.718,250.935,250.935,0,0,0-.1-1.437,6.114,6.114,0,0,0-.053-.717,6.365,6.365,0,0,0-.055-.718,6.631,6.631,0,0,0-.06-.717,161.15,161.15,0,0,0-.346-3.583,6.579,6.579,0,0,0-.079-.716,6.335,6.335,0,0,0-.083-.716,120.335,120.335,0,0,0-.175-1.43,236.856,236.856,0,0,0-.187-1.43,6.578,6.578,0,0,0-.1-.714,6.4,6.4,0,0,0-.1-.706,6.214,6.214,0,0,0-.1-.7,109.986,109.986,0,0,0-.221-1.4,6.3,6.3,0,0,0-.119-.712,6.463,6.463,0,0,0-.121-.711,6.176,6.176,0,0,0-.126-.711,209.907,209.907,0,0,0-.26-1.421,6.559,6.559,0,0,0-.135-.709,6.484,6.484,0,0,0-.139-.708,206.455,206.455,0,0,0-.288-1.417,6.14,6.14,0,0,0-.148-.706,6.216,6.216,0,0,0-.152-.707,122.941,122.941,0,0,0-.313-1.413,6.362,6.362,0,0,0-.161-.7,6.681,6.681,0,0,0-.165-.705,112.661,112.661,0,0,0-.512-2.093,6.158,6.158,0,0,0-.176-.685,6.035,6.035,0,0,0-.179-.685,6.278,6.278,0,0,0-.185-.693,6.2,6.2,0,0,0-.191-.7,201.308,201.308,0,0,0-.393-1.4,159.983,159.983,0,0,0-.406-1.394,177.035,177.035,0,0,0-.419-1.391,6.091,6.091,0,0,0-.215-.695,134.317,134.317,0,0,0-.439-1.387,6.386,6.386,0,0,0-.224-.692,6.277,6.277,0,0,0-.228-.69,156.482,156.482,0,0,0-.465-1.382,6.328,6.328,0,0,0-.238-.688,6.526,6.526,0,0,0-.241-.687,108.288,108.288,0,0,0-.484-1.34,6.118,6.118,0,0,0-.246-.668,6.216,6.216,0,0,0-.25-.668,6.284,6.284,0,0,0-.26-.683,155.108,155.108,0,0,0-.532-1.362,6.482,6.482,0,0,0-.271-.68,6.569,6.569,0,0,0-.275-.679,6.29,6.29,0,0,0-.277-.677,6.393,6.393,0,0,0-.28-.677,178.633,178.633,0,0,0-.572-1.351,154.7,154.7,0,0,0-.881-2.019,177.5,177.5,0,0,0-.605-1.34,118.007,118.007,0,0,0-.615-1.327,6.212,6.212,0,0,0-.308-.65,6.144,6.144,0,0,0-.311-.648,6.275,6.275,0,0,0-.314-.647,6.178,6.178,0,0,0-.318-.647,6.428,6.428,0,0,0-.329-.658,156.7,156.7,0,0,0-1.01-1.973,6.6,6.6,0,0,0-.344-.655,6.413,6.413,0,0,0-.347-.655,6.6,6.6,0,0,0-.349-.652,6.377,6.377,0,0,0-.354-.652,6.671,6.671,0,0,0-.357-.651,6.55,6.55,0,0,0-.361-.649,212.188,212.188,0,0,0-.73-1.293,6.319,6.319,0,0,0-.37-.646,6.641,6.641,0,0,0-.374-.644,148.453,148.453,0,0,0-1.5-2.507,6.238,6.238,0,0,0-.382-.62,157.1,157.1,0,0,0-1.19-1.885,6.444,6.444,0,0,0-.406-.629,6.514,6.514,0,0,0-.411-.628,6.188,6.188,0,0,0-.412-.626,143.393,143.393,0,0,0-1.26-1.871,6.186,6.186,0,0,0-.426-.62,6.4,6.4,0,0,0-.429-.619,6.623,6.623,0,0,0-.434-.617,6.266,6.266,0,0,0-.437-.617,6.413,6.413,0,0,0-.439-.614,6.658,6.658,0,0,0-.439-.606,6.814,6.814,0,0,0-.437-.594,6.507,6.507,0,0,0-.44-.592,6.185,6.185,0,0,0-.443-.591,6.364,6.364,0,0,0-.446-.59,6.588,6.588,0,0,0-.45-.588,6.16,6.16,0,0,0-.466-.6,6.057,6.057,0,0,0-.469-.6,6.261,6.261,0,0,0-.472-.6,6.455,6.455,0,0,0-.476-.6,6.593,6.593,0,0,0-.479-.593,6.467,6.467,0,0,0-.483-.592,6.808,6.808,0,0,0-.486-.59,6.649,6.649,0,0,0-.49-.588,142.167,142.167,0,0,0-1.488-1.754,127.169,127.169,0,0,0-1.507-1.725,154.782,154.782,0,0,0-1.513-1.675,127.214,127.214,0,0,0-2.088-2.227,6.4,6.4,0,0,0-.539-.56,6.539,6.539,0,0,0-.542-.558,6.247,6.247,0,0,0-.545-.555,157.058,157.058,0,0,0-1.653-1.654,6.548,6.548,0,0,0-.556-.544,6.381,6.381,0,0,0-.558-.542,256.866,256.866,0,0,0-1.122-1.074,6.387,6.387,0,0,0-.559-.527,237.655,237.655,0,0,0-1.107-1.025,6.411,6.411,0,0,0-.557-.507,121.027,121.027,0,0,0-1.117-1,6.617,6.617,0,0,0-.565-.5,6.216,6.216,0,0,0-.579-.5,183.236,183.236,0,0,0-1.164-1,154.672,154.672,0,0,0-1.172-.988,6.624,6.624,0,0,0-.589-.49,6.322,6.322,0,0,0-.59-.485,6.128,6.128,0,0,0-.592-.484,6.389,6.389,0,0,0-.593-.478,6.27,6.27,0,0,0-.6-.476,6.145,6.145,0,0,0-.6-.472,6.5,6.5,0,0,0-.6-.47,6.3,6.3,0,0,0-.6-.464,6.863,6.863,0,0,0-.588-.449,131.235,131.235,0,0,0-1.776-1.329,6.6,6.6,0,0,0-.593-.436,116.714,116.714,0,0,0-1.222-.879,6.238,6.238,0,0,0-.615-.436,144.734,144.734,0,0,0-1.858-1.289,6.291,6.291,0,0,0-.621-.423,6.2,6.2,0,0,0-.624-.42,6.53,6.53,0,0,0-.625-.417,6.291,6.291,0,0,0-.625-.412,6.415,6.415,0,0,0-.628-.41,6.192,6.192,0,0,0-.63-.406,6.458,6.458,0,0,0-.631-.4,6.817,6.817,0,0,0-.633-.4,6.3,6.3,0,0,0-.621-.387,6.364,6.364,0,0,0-.62-.381,6.619,6.619,0,0,0-.622-.379,6.44,6.44,0,0,0-.623-.375,6.231,6.231,0,0,0-.624-.372,6.42,6.42,0,0,0-.639-.375,193.771,193.771,0,0,0-1.289-.743,6.4,6.4,0,0,0-.647-.367,140.524,140.524,0,0,0-2.6-1.433,6.252,6.252,0,0,0-.653-.351,6.614,6.614,0,0,0-.654-.347,148.981,148.981,0,0,0-1.97-1.019,6.371,6.371,0,0,0-.659-.333,6.305,6.305,0,0,0-.657-.328,6.137,6.137,0,0,0-.646-.317,6.349,6.349,0,0,0-.648-.314,6.109,6.109,0,0,0-.648-.31,6.47,6.47,0,0,0-.65-.309,6.658,6.658,0,0,0-.66-.308,194.741,194.741,0,0,0-1.338-.61,140.149,140.149,0,0,0-1.342-.6,132.031,132.031,0,0,0-2.022-.871,5.977,5.977,0,0,0-.675-.283,158.844,158.844,0,0,0-3.394-1.37,6.508,6.508,0,0,0-.682-.264,6.828,6.828,0,0,0-.681-.26,6.372,6.372,0,0,0-.668-.249,127.178,127.178,0,0,0-1.338-.49,6.89,6.89,0,0,0-.671-.24,6.582,6.582,0,0,0-.688-.241,588.059,588.059,0,0,0-1.378-.472,6.58,6.58,0,0,0-.69-.23,151.012,151.012,0,0,0-2.771-.891,6.411,6.411,0,0,0-.695-.214,6.167,6.167,0,0,0-.7-.211,6.394,6.394,0,0,0-.7-.208,6.137,6.137,0,0,0-.7-.2,6.333,6.333,0,0,0-.7-.2,6.074,6.074,0,0,0-.7-.2,136.1,136.1,0,0,0-2.775-.75,6.682,6.682,0,0,0-.686-.176,140.851,140.851,0,0,0-1.39-.343,6.638,6.638,0,0,0-.7-.168,174.275,174.275,0,0,0-2.822-.639,6.679,6.679,0,0,0-.706-.151,6.487,6.487,0,0,0-.708-.148,6.186,6.186,0,0,0-.707-.145,164.339,164.339,0,0,0-1.417-.28,6.283,6.283,0,0,0-.709-.134,128.5,128.5,0,0,0-1.421-.26,121.532,121.532,0,0,0-1.421-.247,6.327,6.327,0,0,0-.713-.119,6.17,6.17,0,0,0-.705-.113,5.956,5.956,0,0,0-.7-.108,6.251,6.251,0,0,0-.7-.1,6.154,6.154,0,0,0-.707-.1,6.552,6.552,0,0,0-.715-.1,140.091,140.091,0,0,0-2.144-.276,6.054,6.054,0,0,0-.714-.085,6.353,6.353,0,0,0-.717-.083,158.522,158.522,0,0,0-1.432-.155,6.384,6.384,0,0,0-.716-.072,6.884,6.884,0,0,0-.717-.069,6.6,6.6,0,0,0-.717-.065,6.373,6.373,0,0,0-.717-.063,6.15,6.15,0,0,0-.718-.059,6.379,6.379,0,0,0-.718-.057,6.616,6.616,0,0,0-.717-.053,6.952,6.952,0,0,0-.718-.049,169.37,169.37,0,0,0-1.435-.088h0A6.622,6.622,0,0,0,827,648.7h-.018a6.592,6.592,0,0,0-.669-.035l-.034,0c-.214-.021-.431-.033-.652-.033-.022,0-.045,0-.067,0-.2-.019-.41-.031-.619-.031-.034,0-.066,0-.1.005-.194-.018-.388-.03-.586-.03-.045,0-.088.005-.133.006-.183-.016-.366-.028-.554-.028-.055,0-.11.006-.164.009-.174-.014-.346-.027-.522-.027-.067,0-.132.007-.2.01-.162-.012-.324-.025-.489-.025-.078,0-.153.01-.23.012-.151-.011-.3-.022-.456-.022-.09,0-.175.01-.263.013-.141-.01-.281-.021-.424-.021-.1,0-.2.01-.3.015-.13-.008-.26-.02-.391-.02-.112,0-.219.012-.329.017s-.238-.018-.358-.018-.241.012-.361.018-.216-.016-.326-.016c-.132,0-.262.012-.393.019-.1,0-.194-.015-.293-.015-.144,0-.285.013-.427.022-.086,0-.172-.013-.26-.013-.154,0-.307.012-.459.022-.076,0-.15-.012-.227-.012-.166,0-.329.013-.492.026-.065,0-.129-.011-.195-.011-.177,0-.35.013-.524.027-.054,0-.108-.007-.163-.007-.188,0-.372.012-.556.028-.044,0-.086-.006-.13-.006-.2,0-.4.012-.589.03-.033,0-.064-.005-.1-.005-.21,0-.417.012-.622.032-.021,0-.043,0-.064,0a6.337,6.337,0,0,0-.654.034l-.032,0a6.616,6.616,0,0,0-.67.035H811.9a6.631,6.631,0,0,0-.687.037,180.19,180.19,0,0,0-2.872.192,6.652,6.652,0,0,0-.718.056,158.653,158.653,0,0,0-3.585.33,6.653,6.653,0,0,0-.716.076,161.158,161.158,0,0,0-1.432.163,6.115,6.115,0,0,0-.715.085,6.326,6.326,0,0,0-.716.089,260.646,260.646,0,0,0-1.428.188,6.55,6.55,0,0,0-.714.1,149.878,149.878,0,0,0-1.4.207,142.884,142.884,0,0,0-2.113.341,6.231,6.231,0,0,0-.712.122,6.483,6.483,0,0,0-.711.125,6.731,6.731,0,0,0-.711.129,165.718,165.718,0,0,0-2.128.406,213.482,213.482,0,0,0-1.416.288,6.158,6.158,0,0,0-.707.148,216.245,216.245,0,0,0-1.414.307,6.685,6.685,0,0,0-.705.159,6.406,6.406,0,0,0-.706.162,6.2,6.2,0,0,0-.7.165,6.329,6.329,0,0,0-.7.168,103.374,103.374,0,0,0-1.389.344,6.125,6.125,0,0,0-.685.176,6.353,6.353,0,0,0-.685.179,6.27,6.27,0,0,0-.695.185,6.386,6.386,0,0,0-.7.192,168.339,168.339,0,0,0-1.4.393,168.23,168.23,0,0,0-1.393.406,6.079,6.079,0,0,0-.7.208,154.107,154.107,0,0,0-3.469,1.09,6.167,6.167,0,0,0-.691.228,6.579,6.579,0,0,0-.69.23,6.23,6.23,0,0,0-.689.235,6.032,6.032,0,0,0-.689.237,120.073,120.073,0,0,0-2.027.724,133.2,133.2,0,0,0-1.336.5,6.263,6.263,0,0,0-.683.261,6.054,6.054,0,0,0-.682.264,6.377,6.377,0,0,0-.681.267,6.263,6.263,0,0,0-.68.271,6.341,6.341,0,0,0-.679.275,6.253,6.253,0,0,0-.678.276,6.542,6.542,0,0,0-.677.282,6.054,6.054,0,0,0-.674.283,166.271,166.271,0,0,0-2.022.872,6.539,6.539,0,0,0-.671.3,170.249,170.249,0,0,0-2.008.912,229.749,229.749,0,0,0-1.309.616,6.554,6.554,0,0,0-.648.311,183.13,183.13,0,0,0-1.293.633,6.417,6.417,0,0,0-.658.329,6.59,6.59,0,0,0-.659.333,6.159,6.159,0,0,0-.657.338,6.379,6.379,0,0,0-.657.34,6.479,6.479,0,0,0-.655.344,160.43,160.43,0,0,0-1.307.7,6.606,6.606,0,0,0-.651.354,6.486,6.486,0,0,0-.65.357,6.656,6.656,0,0,0-.65.36,6.454,6.454,0,0,0-.648.364,6.635,6.635,0,0,0-.647.366,227.6,227.6,0,0,0-1.288.744,123.8,123.8,0,0,0-1.262.747,6.588,6.588,0,0,0-.623.376,129.1,129.1,0,0,0-2.5,1.549,6.61,6.61,0,0,0-.632.4,6.784,6.784,0,0,0-.628.407,6.514,6.514,0,0,0-.629.41,6.682,6.682,0,0,0-.626.413,6.51,6.51,0,0,0-.624.417,132.712,132.712,0,0,0-1.865,1.27,6.437,6.437,0,0,0-.619.429,6.253,6.253,0,0,0-.618.434,6.418,6.418,0,0,0-.616.437,6.108,6.108,0,0,0-.614.44,6.254,6.254,0,0,0-.605.438,169.945,169.945,0,0,0-1.188.877,6.466,6.466,0,0,0-.591.443,135.566,135.566,0,0,0-1.177.9,6.223,6.223,0,0,0-.6.465,6.4,6.4,0,0,0-.6.47,6.238,6.238,0,0,0-.6.472,6.454,6.454,0,0,0-.6.476,6.567,6.567,0,0,0-.593.479,191.4,191.4,0,0,0-1.182.969,179.5,179.5,0,0,0-1.76,1.477,6.727,6.727,0,0,0-.584.5,189.623,189.623,0,0,0-1.16,1.009,134.524,134.524,0,0,0-3.9,3.566,6.2,6.2,0,0,0-.561.535,6.506,6.506,0,0,0-.56.539,268.722,268.722,0,0,0-1.113,1.087,6.568,6.568,0,0,0-.554.55,6.257,6.257,0,0,0-.551.552,142.829,142.829,0,0,0-1.635,1.668,6.221,6.221,0,0,0-.538.559,6.346,6.346,0,0,0-.536.561,6.531,6.531,0,0,0-.527.56,6.419,6.419,0,0,0-.513.552,6.619,6.619,0,0,0-.51.555,6.256,6.256,0,0,0-.507.556,147.195,147.195,0,0,0-1,1.119,6.26,6.26,0,0,0-.5.565,125.551,125.551,0,0,0-1.008,1.161,6.37,6.37,0,0,0-.5.583,6.694,6.694,0,0,0-.5.586,6.5,6.5,0,0,0-.492.587,6.288,6.288,0,0,0-.488.588,6.565,6.565,0,0,0-.487.59,6.747,6.747,0,0,0-.482.592,6.123,6.123,0,0,0-.479.594A134.016,134.016,0,0,0,702,706.111a6.4,6.4,0,0,0-.463.6,124.071,124.071,0,0,0-1.338,1.77,6.149,6.149,0,0,0-.44.593,6.3,6.3,0,0,0-.436.594,6.221,6.221,0,0,0-.44.607,166.224,166.224,0,0,0-1.308,1.847,165.545,165.545,0,0,0-1.278,1.862,6.31,6.31,0,0,0-.42.623,135.112,135.112,0,0,0-.829,1.252,6.306,6.306,0,0,0-.41.629,127.394,127.394,0,0,0-.809,1.26,6.368,6.368,0,0,0-.4.632,6.679,6.679,0,0,0-.387.621,6.267,6.267,0,0,0-.381.62,219.233,219.233,0,0,0-.754,1.245,6.758,6.758,0,0,0-.372.624,6.489,6.489,0,0,0-.375.64,147.278,147.278,0,0,0-.742,1.289,6.216,6.216,0,0,0-.366.647,6.086,6.086,0,0,0-.363.648,6.2,6.2,0,0,0-.36.65,6.4,6.4,0,0,0-.357.65,6.177,6.177,0,0,0-.353.652,6.267,6.267,0,0,0-.351.653,147.574,147.574,0,0,0-1.367,2.625,6.463,6.463,0,0,0-.333.658,6.63,6.63,0,0,0-.327.656,6.159,6.159,0,0,0-.317.647,6.373,6.373,0,0,0-.314.647,6.745,6.745,0,0,0-.311.649,137.645,137.645,0,0,0-1.225,2.648,6.557,6.557,0,0,0-.3.672,6.654,6.654,0,0,0-.3.671,6.149,6.149,0,0,0-.293.672,6.256,6.256,0,0,0-.291.674,6.059,6.059,0,0,0-.287.674,6.265,6.265,0,0,0-.284.675,6.51,6.51,0,0,0-.28.677,147.257,147.257,0,0,0-.551,1.357,6.182,6.182,0,0,0-.271.679,6.288,6.288,0,0,0-.266.682,6.065,6.065,0,0,0-.264.682,104.625,104.625,0,0,0-.509,1.348,119.48,119.48,0,0,0-.49,1.339,6.286,6.286,0,0,0-.24.671,6.573,6.573,0,0,0-.241.688,6.3,6.3,0,0,0-.236.688,6.117,6.117,0,0,0-.234.69,6.357,6.357,0,0,0-.231.691,6.091,6.091,0,0,0-.227.69,6.455,6.455,0,0,0-.225.693,156.417,156.417,0,0,0-.438,1.386,6.58,6.58,0,0,0-.215.7,6.314,6.314,0,0,0-.21.695,173.455,173.455,0,0,0-.412,1.393,134.865,134.865,0,0,0-.4,1.394,6.421,6.421,0,0,0-.2.7,6.563,6.563,0,0,0-.191.7,144.811,144.811,0,0,0-.363,1.376,6.415,6.415,0,0,0-.176.686,6.114,6.114,0,0,0-.171.687,134.36,134.36,0,0,0-.5,2.111,132.323,132.323,0,0,0-.32,1.411,187.7,187.7,0,0,0-.306,1.413,104.725,104.725,0,0,0-.293,1.416,6.266,6.266,0,0,0-.142.709,6.387,6.387,0,0,0-.138.708,6.518,6.518,0,0,0-.135.709,6.24,6.24,0,0,0-.131.709,120.118,120.118,0,0,0-.254,1.421,6.047,6.047,0,0,0-.122.712,6.294,6.294,0,0,0-.119.712,6.683,6.683,0,0,0-.113.7,6.531,6.531,0,0,0-.108.7,6.287,6.287,0,0,0-.1.7,6.217,6.217,0,0,0-.1.709,6.482,6.482,0,0,0-.1.713,6.258,6.258,0,0,0-.095.714,143.543,143.543,0,0,0-.266,2.146,6.022,6.022,0,0,0-.082.715,6.366,6.366,0,0,0-.08.717,127.311,127.311,0,0,0-.147,1.432,130.978,130.978,0,0,0-.2,2.152,6.307,6.307,0,0,0-.06.716,6.657,6.657,0,0,0-.055.718,254.512,254.512,0,0,0-.1,1.436,166.377,166.377,0,0,0-.088,1.434h0a6.317,6.317,0,0,0-.038.685v.017a6.609,6.609,0,0,0-.035.669l0,.035a6.257,6.257,0,0,0-.033.651c0,.022,0,.045,0,.068-.019.2-.031.409-.031.618,0,.033,0,.067.005.1-.018.194-.03.388-.03.586,0,.045.005.089.006.133-.016.183-.028.367-.028.553,0,.057.006.111.008.167-.014.172-.027.344-.027.52,0,.067.008.132.011.2-.013.162-.026.323-.026.487,0,.079.01.155.012.232-.011.15-.022.3-.022.455,0,.089.01.176.013.264-.008.141-.021.28-.021.422,0,.1.011.2.015.3-.007.129-.019.258-.019.389,0,.111.011.219.016.33s-.018.236-.018.357.012.242.019.362-.017.215-.017.325c0,.133.012.263.02.394,0,.1-.015.194-.015.292,0,.144.013.286.021.427,0,.086-.013.173-.013.26,0,.156.013.307.023.459,0,.077-.012.15-.012.227,0,.166.013.33.026.493,0,.065-.011.128-.011.194,0,.177.013.351.027.524,0,.054-.009.108-.009.162,0,.189.013.374.029.558,0,.043-.006.085-.006.129,0,.2.012.4.03.59,0,.032-.005.063-.005.1,0,.211.012.418.032.623,0,.021,0,.042,0,.063a6.371,6.371,0,0,0,.033.655l0,.031a6.362,6.362,0,0,0,.036.671v.015a198.735,198.735,0,0,0,.081,1.406,6.659,6.659,0,0,0,.047.718,6.138,6.138,0,0,0,.05.718,6.34,6.34,0,0,0,.052.717,6.6,6.6,0,0,0,.056.718,165.868,165.868,0,0,0,.407,4.3,127.645,127.645,0,0,0,.162,1.432,252.665,252.665,0,0,0,.175,1.43,159.081,159.081,0,0,0,.189,1.43,6.461,6.461,0,0,0,.1.713,6.335,6.335,0,0,0,.1.705,6.219,6.219,0,0,0,.105.7,6.291,6.291,0,0,0,.108.7,6.4,6.4,0,0,0,.114.706,6.508,6.508,0,0,0,.119.712,6.3,6.3,0,0,0,.122.712,6.189,6.189,0,0,0,.126.711,6.26,6.26,0,0,0,.128.711,6.339,6.339,0,0,0,.133.711,157.575,157.575,0,0,0,.415,2.125,6.458,6.458,0,0,0,.145.708,147.039,147.039,0,0,0,.456,2.12A147.227,147.227,0,0,0,674.8,831a156.783,156.783,0,0,0,.333,1.408,104.981,104.981,0,0,0,.344,1.388,6.106,6.106,0,0,0,.176.685,6.379,6.379,0,0,0,.179.685,6.089,6.089,0,0,0,.186.695,6.18,6.18,0,0,0,.191.7,158.08,158.08,0,0,0,.393,1.4,6.662,6.662,0,0,0,.2.7,6.371,6.371,0,0,0,.206.7,153.836,153.836,0,0,0,.852,2.779,147.876,147.876,0,0,0,.673,2.076,6.326,6.326,0,0,0,.231.69,6.6,6.6,0,0,0,.234.69,6.323,6.323,0,0,0,.239.688,6,6,0,0,0,.241.686,170.643,170.643,0,0,0,.73,2.009,6.5,6.5,0,0,0,.25.668,161.343,161.343,0,0,0,.525,1.365,145.281,145.281,0,0,0,1.091,2.716,6.483,6.483,0,0,0,.28.676,168.522,168.522,0,0,0,.863,2.024,6.47,6.47,0,0,0,.294.672,186.906,186.906,0,0,0,.9,2.012,6.65,6.65,0,0,0,.307.667,129.98,129.98,0,0,0,.616,1.309,6.616,6.616,0,0,0,.311.648,126.976,126.976,0,0,0,1.3,2.611,6.522,6.522,0,0,0,.337.658,418.684,418.684,0,0,0,.684,1.311,6.5,6.5,0,0,0,.347.653,6.3,6.3,0,0,0,.351.653,6.389,6.389,0,0,0,.354.652,6.259,6.259,0,0,0,.358.65,6.064,6.064,0,0,0,.36.649,146.524,146.524,0,0,0,.731,1.3,6.433,6.433,0,0,0,.37.645,6.516,6.516,0,0,0,.374.643,129.775,129.775,0,0,0,1.123,1.884,113.932,113.932,0,0,0,.761,1.242,6.589,6.589,0,0,0,.389.623,6.368,6.368,0,0,0,.4.632,6.524,6.524,0,0,0,.4.631,6.393,6.393,0,0,0,.407.63,182.926,182.926,0,0,0,1.239,1.878,6.519,6.519,0,0,0,.421.624,6.288,6.288,0,0,0,.423.621,6.527,6.527,0,0,0,.427.621,6.368,6.368,0,0,0,.43.619,6.557,6.557,0,0,0,.432.617,6.227,6.227,0,0,0,.437.615,128.92,128.92,0,0,0,.878,1.219,120.444,120.444,0,0,0,.877,1.188,6.525,6.525,0,0,0,.444.591,6.272,6.272,0,0,0,.446.59,6.345,6.345,0,0,0,.449.588,6.525,6.525,0,0,0,.466.6,149.408,149.408,0,0,0,1.419,1.792,6.234,6.234,0,0,0,.479.593,6.612,6.612,0,0,0,.483.591,6.291,6.291,0,0,0,.486.59,6.63,6.63,0,0,0,.489.588,6.521,6.521,0,0,0,.494.588,6.632,6.632,0,0,0,.5.584,6.723,6.723,0,0,0,.5.584,180.721,180.721,0,0,0,1.01,1.161,6.362,6.362,0,0,0,.5.562,150.5,150.5,0,0,0,1.514,1.674,153.206,153.206,0,0,0,1.025,1.107,127.672,127.672,0,0,0,1.065,1.123,6.485,6.485,0,0,0,.539.559,193.746,193.746,0,0,0,1.088,1.113,6.4,6.4,0,0,0,.549.554A153.032,153.032,0,0,0,715.272,903a6.265,6.265,0,0,0,.539.528,6.4,6.4,0,0,0,.54.525,155.29,155.29,0,0,0,1.087,1.041,6.434,6.434,0,0,0,.547.516,6.194,6.194,0,0,0,.539.5,6.414,6.414,0,0,0,.537.5,6.538,6.538,0,0,0,.539.492,6.4,6.4,0,0,0,.541.49,6.547,6.547,0,0,0,.542.486,132.278,132.278,0,0,0,1.674,1.466,6.113,6.113,0,0,0,.563.485,6.278,6.278,0,0,0,.567.483,174.95,174.95,0,0,0,1.137.953,6.569,6.569,0,0,0,.571.473,231.348,231.348,0,0,0,1.147.935,6.508,6.508,0,0,0,.575.462,6.3,6.3,0,0,0,.578.459,6.18,6.18,0,0,0,.58.457,6.28,6.28,0,0,0,.58.453,104.387,104.387,0,0,0,1.727,1.319,6.152,6.152,0,0,0,.574.429,6.371,6.371,0,0,0,.574.425,6.476,6.476,0,0,0,.581.425,6.581,6.581,0,0,0,.594.429,6.392,6.392,0,0,0,.6.426,6.655,6.655,0,0,0,.6.422,6.728,6.728,0,0,0,.6.42,6.5,6.5,0,0,0,.6.415,6.273,6.273,0,0,0,.6.413,6.447,6.447,0,0,0,.6.41,6.6,6.6,0,0,0,.6.407,6.234,6.234,0,0,0,.606.4,6.056,6.056,0,0,0,.606.4,161.755,161.755,0,0,0,1.218.792,6.33,6.33,0,0,0,.611.392,6.508,6.508,0,0,0,.612.388,8.873,8.873,0,0,0,4.246,1.52,6.871,6.871,0,0,0,1.936-12.707,194.808,194.808,0,0,1-1.1-.707,6.224,6.224,0,0,0-.55-.358,191.965,191.965,0,0,1-1.1-.727,6.457,6.457,0,0,0-.544-.366,6.351,6.351,0,0,0-.544-.371,6.125,6.125,0,0,0-.543-.374,6.328,6.328,0,0,0-.54-.376,6.58,6.58,0,0,0-.54-.38,6.442,6.442,0,0,0-.538-.382,6.323,6.323,0,0,0-.536-.386,6.214,6.214,0,0,0-.535-.389,6.5,6.5,0,0,0-.544-.4,6.316,6.316,0,0,0-.547-.4,6.746,6.746,0,0,0-.545-.408,6.573,6.573,0,0,0-.543-.41,6.39,6.39,0,0,0-.542-.413,6.324,6.324,0,0,0-.526-.4,6.221,6.221,0,0,0-.525-.408,6.475,6.475,0,0,0-.524-.411,6.224,6.224,0,0,0-.522-.413,6.155,6.155,0,0,0-.521-.418,163.331,163.331,0,0,1-1.036-.843,6.36,6.36,0,0,0-.515-.426,83.235,83.235,0,0,1-1.025-.862,6.346,6.346,0,0,0-.509-.433,143.834,143.834,0,0,1-1.014-.88,6.627,6.627,0,0,0-.5-.445,6.325,6.325,0,0,0-.513-.455,6.444,6.444,0,0,0-.516-.461,6.054,6.054,0,0,0-.513-.464,6.25,6.25,0,0,0-.512-.469,6.44,6.44,0,0,0-.509-.471,6.353,6.353,0,0,0-.5-.469,6.545,6.545,0,0,0-.494-.464c-.157-.163-.32-.32-.492-.467a6.37,6.37,0,0,0-.49-.469,6.628,6.628,0,0,0-.488-.474,6.763,6.763,0,0,0-.486-.474,6.236,6.236,0,0,0-.485-.479,6.379,6.379,0,0,0-.489-.488,6.556,6.556,0,0,0-.492-.5,160.878,160.878,0,0,1-.977-1,6.164,6.164,0,0,0-.483-.5,6.374,6.374,0,0,0-.48-.507,151.484,151.484,0,0,1-.967-1.034,100.881,100.881,0,0,1-.966-1.052,161.813,161.813,0,0,1-.953-1.06,6.579,6.579,0,0,0-.471-.533,6.211,6.211,0,0,0-.457-.519,273.595,273.595,0,0,1-.9-1.044,6.342,6.342,0,0,0-.446-.526,6.669,6.669,0,0,0-.443-.526,6.308,6.308,0,0,0-.441-.528,6.141,6.141,0,0,0-.437-.531,153.581,153.581,0,0,1-.865-1.067,6.058,6.058,0,0,0-.427-.536,6.253,6.253,0,0,0-.424-.538,107.186,107.186,0,0,1-.839-1.082,168.558,168.558,0,0,1-.85-1.116,6.522,6.522,0,0,0-.421-.562,6.3,6.3,0,0,0-.418-.562,6.767,6.767,0,0,0-.413-.565,128.181,128.181,0,0,1-.8-1.109,100.61,100.61,0,0,1-.786-1.108,6.426,6.426,0,0,0-.388-.557,6.664,6.664,0,0,0-.385-.557,6.244,6.244,0,0,0-.381-.56,6.406,6.406,0,0,0-.377-.56,6.7,6.7,0,0,0-.375-.564,6.411,6.411,0,0,0-.372-.564,6.477,6.477,0,0,0-.369-.567,6.175,6.175,0,0,0-.364-.567,6.435,6.435,0,0,0-.362-.57,6.187,6.187,0,0,0-.359-.571,6.068,6.068,0,0,0-.363-.583,111.149,111.149,0,0,1-.722-1.179,6.555,6.555,0,0,0-.357-.591,6.361,6.361,0,0,0-.353-.593,6.665,6.665,0,0,0-.345-.583,6.268,6.268,0,0,0-.339-.58,6.493,6.493,0,0,0-.334-.581,6.376,6.376,0,0,0-.332-.582,6.249,6.249,0,0,0-.329-.584,6.39,6.39,0,0,0-.326-.586,6.229,6.229,0,0,0-.322-.586,103.04,103.04,0,0,1-.635-1.177,6.381,6.381,0,0,0-.313-.59,117.951,117.951,0,0,1-.615-1.185,6.216,6.216,0,0,0-.3-.594,6.57,6.57,0,0,0-.3-.6,286.121,286.121,0,0,1-.6-1.212,6.407,6.407,0,0,0-.3-.615,6.522,6.522,0,0,0-.3-.616,6.29,6.29,0,0,0-.292-.618,6.6,6.6,0,0,0-.287-.609,6.044,6.044,0,0,0-.28-.6,6.291,6.291,0,0,0-.276-.6,6.065,6.065,0,0,0-.274-.6,127.77,127.77,0,0,1-.536-1.215,6.386,6.386,0,0,0-.263-.608,6.284,6.284,0,0,0-.26-.609c-.076-.209-.162-.412-.257-.611a6.508,6.508,0,0,0-.255-.613,6.162,6.162,0,0,0-.25-.614,6.389,6.389,0,0,0-.246-.613,158.5,158.5,0,0,1-.485-1.233,6.277,6.277,0,0,0-.238-.618,6,6,0,0,0-.233-.618,6.3,6.3,0,0,0-.238-.635,105.2,105.2,0,0,1-.467-1.273,6.578,6.578,0,0,0-.228-.638,6.248,6.248,0,0,0-.222-.623,6.408,6.408,0,0,0-.217-.623,130.441,130.441,0,0,1-.425-1.25,6.351,6.351,0,0,0-.208-.626,84.8,84.8,0,0,1-.4-1.254,6.318,6.318,0,0,0-.2-.628q-.081-.321-.194-.63a92.159,92.159,0,0,1-.379-1.261,6.507,6.507,0,0,0-.184-.631,6.246,6.246,0,0,0-.182-.633,118.7,118.7,0,0,1-.353-1.268,5.982,5.982,0,0,0-.172-.635,139.605,139.605,0,0,1-.341-1.294,138.216,138.216,0,0,1-.331-1.306,165.555,165.555,0,0,1-.314-1.278,6.086,6.086,0,0,0-.151-.639q-.059-.326-.148-.64a6.426,6.426,0,0,0-.146-.64,6.124,6.124,0,0,0-.142-.64,6.029,6.029,0,0,0-.139-.641,147.122,147.122,0,0,1-.267-1.286,6.144,6.144,0,0,0-.129-.643,6.434,6.434,0,0,0-.125-.643,6.512,6.512,0,0,0-.122-.646,6.125,6.125,0,0,0-.119-.643,6.191,6.191,0,0,0-.115-.647,6.466,6.466,0,0,0-.112-.646c-.026-.218-.063-.434-.109-.647a107.048,107.048,0,0,1-.21-1.3,6.161,6.161,0,0,0-.1-.664,6.47,6.47,0,0,0-.1-.665,6.347,6.347,0,0,0-.1-.656,156.991,156.991,0,0,1-.182-1.3,6.543,6.543,0,0,0-.085-.65c-.017-.22-.045-.436-.083-.65a109.929,109.929,0,0,1-.156-1.3,6.233,6.233,0,0,0-.072-.651c-.013-.22-.035-.438-.069-.652-.012-.221-.033-.437-.066-.651a6.492,6.492,0,0,0-.063-.651c-.01-.221-.029-.438-.06-.652a137.151,137.151,0,0,1-.11-1.3c-.005-.221-.022-.438-.049-.652a6.321,6.321,0,0,0-.047-.653c0-.22-.018-.438-.043-.653,0-.221-.016-.439-.041-.653a6.328,6.328,0,0,0-.036-.653,6.681,6.681,0,0,0-.035-.67v-.015a6.334,6.334,0,0,0-.033-.654l0-.032c0-.21-.012-.418-.032-.623,0-.021,0-.042,0-.063,0-.2-.012-.4-.03-.59,0-.032.005-.064.005-.1,0-.189-.013-.374-.029-.558,0-.043.006-.085.006-.129,0-.177-.012-.35-.027-.524,0-.054.008-.108.008-.162,0-.166-.012-.329-.025-.493,0-.064.01-.128.01-.194,0-.154-.013-.307-.024-.459,0-.076.012-.15.012-.227,0-.145-.012-.286-.021-.427,0-.086.013-.171.013-.26,0-.133-.012-.263-.02-.4,0-.1.015-.193.015-.291,0-.122-.012-.242-.018-.362s.016-.215.016-.325-.011-.219-.016-.329.018-.237.018-.358c0-.1-.011-.2-.015-.3.008-.13.019-.259.019-.391,0-.088-.01-.176-.013-.264.008-.14.021-.279.021-.422,0-.078-.01-.154-.012-.231.011-.151.022-.3.022-.456,0-.067-.007-.132-.01-.2.012-.161.025-.323.025-.487,0-.056-.007-.111-.009-.166.014-.173.027-.345.027-.521,0-.045-.006-.088-.006-.133.015-.182.028-.365.028-.553,0-.034,0-.067-.005-.1.017-.194.03-.389.03-.586,0-.023,0-.046,0-.069.02-.2.032-.408.032-.617l0-.036c.021-.214.033-.43.033-.65v-.018a6.3,6.3,0,0,0,.035-.668v0a128.031,128.031,0,0,1,.076-1.308,132.3,132.3,0,0,1,.088-1.3,6.272,6.272,0,0,0,.049-.653c.029-.214.046-.432.053-.653.029-.214.048-.431.055-.652a6.266,6.266,0,0,0,.059-.652,6.2,6.2,0,0,0,.063-.651,6.543,6.543,0,0,0,.066-.652,97.988,97.988,0,0,1,.141-1.3,135.1,135.1,0,0,1,.154-1.3,126.724,126.724,0,0,1,.167-1.3q.061-.321.089-.65a6.488,6.488,0,0,0,.092-.65,6.205,6.205,0,0,0,.1-.653,114.379,114.379,0,0,1,.2-1.328,6.545,6.545,0,0,0,.1-.655,136.765,136.765,0,0,1,.214-1.293,81.048,81.048,0,0,1,.227-1.291,124.533,124.533,0,0,1,.24-1.289,6.536,6.536,0,0,0,.125-.644q.08-.316.129-.644a6.435,6.435,0,0,0,.131-.643,6.326,6.326,0,0,0,.134-.641,116.5,116.5,0,0,1,.28-1.284,6.357,6.357,0,0,0,.145-.64c.06-.209.109-.423.148-.64q.091-.313.151-.638c.062-.209.113-.423.155-.639a6.419,6.419,0,0,0,.158-.638,6.285,6.285,0,0,0,.163-.653,6.378,6.378,0,0,0,.167-.653,6.048,6.048,0,0,0,.17-.653,6.132,6.132,0,0,0,.17-.643,150.153,150.153,0,0,1,.345-1.269,5.98,5.98,0,0,0,.178-.635,151.834,151.834,0,0,1,.365-1.263c.073-.206.135-.417.188-.631.073-.207.137-.416.191-.632a84.482,84.482,0,0,1,.391-1.257,6.245,6.245,0,0,0,.2-.629,104.087,104.087,0,0,1,.411-1.253,6.245,6.245,0,0,0,.21-.624,6.516,6.516,0,0,0,.214-.624,6.152,6.152,0,0,0,.216-.624,5.992,5.992,0,0,0,.221-.622,6.45,6.45,0,0,0,.228-.637,6.241,6.241,0,0,0,.231-.637,6.484,6.484,0,0,0,.234-.636,6.334,6.334,0,0,0,.238-.636,6.2,6.2,0,0,0,.234-.62,6.322,6.322,0,0,0,.237-.618,6.4,6.4,0,0,0,.24-.616,6.56,6.56,0,0,0,.244-.616,97.087,97.087,0,0,1,.5-1.228c.094-.2.178-.4.252-.611a193.884,193.884,0,0,1,.516-1.222,144.442,144.442,0,0,1,.529-1.216,6.347,6.347,0,0,0,.27-.607c.1-.2.191-.4.273-.6a116.093,116.093,0,0,1,.555-1.208,6.33,6.33,0,0,0,.284-.608,6.445,6.445,0,0,0,.292-.617,6.174,6.174,0,0,0,.3-.617,6.073,6.073,0,0,0,.3-.615,6.732,6.732,0,0,0,.3-.614,6.459,6.459,0,0,0,.3-.6,6.03,6.03,0,0,0,.3-.6,6.391,6.391,0,0,0,.3-.593c.111-.193.214-.39.306-.594a6.475,6.475,0,0,0,.308-.591,6.23,6.23,0,0,0,.312-.591,6.319,6.319,0,0,0,.315-.589,6.237,6.237,0,0,0,.319-.588,154.374,154.374,0,0,1,.648-1.172,6.374,6.374,0,0,0,.328-.584,6.5,6.5,0,0,0,.331-.582,6.168,6.168,0,0,0,.336-.582,6.39,6.39,0,0,0,.338-.579,6.191,6.191,0,0,0,.343-.581,6.255,6.255,0,0,0,.353-.593,116.131,116.131,0,0,1,.716-1.181,6.488,6.488,0,0,0,.362-.589,6.251,6.251,0,0,0,.364-.586,119.159,119.159,0,0,1,.719-1.14,6.48,6.48,0,0,0,.365-.569,6.308,6.308,0,0,0,.368-.567,161.868,161.868,0,0,1,.745-1.127,6.1,6.1,0,0,0,.378-.562,6.391,6.391,0,0,0,.38-.558,6.527,6.527,0,0,0,.385-.559,6.731,6.731,0,0,0,.388-.556,98.583,98.583,0,0,1,.784-1.108,6.544,6.544,0,0,0,.4-.552,6.278,6.278,0,0,0,.4-.556,6.7,6.7,0,0,0,.413-.565,6.22,6.22,0,0,0,.417-.564,6.345,6.345,0,0,0,.421-.56,120.138,120.138,0,0,1,.85-1.117,6.542,6.542,0,0,0,.42-.545,6.268,6.268,0,0,0,.42-.539,6.448,6.448,0,0,0,.424-.538,6.522,6.522,0,0,0,.427-.537,6.29,6.29,0,0,0,.429-.535,6.123,6.123,0,0,0,.433-.533,6.3,6.3,0,0,0,.437-.531,124.107,124.107,0,0,1,.883-1.057,124.84,124.84,0,0,1,.9-1.048,6.654,6.654,0,0,0,.453-.522,6.4,6.4,0,0,0,.456-.519,6.308,6.308,0,0,0,.469-.531,6.807,6.807,0,0,0,.475-.531,6.6,6.6,0,0,0,.477-.529,131.155,131.155,0,0,1,.965-1.054,247.278,247.278,0,0,1,.968-1.036,6.5,6.5,0,0,0,.479-.507,164.312,164.312,0,0,1,.969-1.008,128.468,128.468,0,0,1,.982-1,6.583,6.583,0,0,0,.5-.5,108.278,108.278,0,0,1,1-.983,6.359,6.359,0,0,0,.5-.486,6.015,6.015,0,0,0,.5-.484,6.314,6.314,0,0,0,.506-.479,143.661,143.661,0,0,1,1.035-.968,6.478,6.478,0,0,0,.525-.485,6.641,6.641,0,0,0,.527-.48,6.471,6.471,0,0,0,.529-.478,6.4,6.4,0,0,0,.53-.475,6.173,6.173,0,0,0,.533-.471,6.615,6.615,0,0,0,.52-.456,6.394,6.394,0,0,0,.52-.454,6.192,6.192,0,0,0,.524-.45,6.321,6.321,0,0,0,.524-.446,6.149,6.149,0,0,0,.527-.444,6.525,6.525,0,0,0,.529-.44,123.907,123.907,0,0,1,1.063-.87,6.635,6.635,0,0,0,.535-.431,6.222,6.222,0,0,0,.535-.426,6.113,6.113,0,0,0,.539-.425,6.045,6.045,0,0,0,.54-.421,400.807,400.807,0,0,1,1.1-.846,6.344,6.344,0,0,0,.559-.423,6.523,6.523,0,0,0,.56-.421,6.349,6.349,0,0,0,.563-.417,6.231,6.231,0,0,0,.565-.414,124.339,124.339,0,0,1,1.109-.8,6.124,6.124,0,0,0,.554-.394,6.484,6.484,0,0,0,.554-.391,6.228,6.228,0,0,0,.556-.388,6.1,6.1,0,0,0,.558-.385,6.291,6.291,0,0,0,.559-.38,6.109,6.109,0,0,0,.563-.379,6.242,6.242,0,0,0,.562-.374,95.2,95.2,0,0,1,1.131-.739,6.41,6.41,0,0,0,.567-.365,6.2,6.2,0,0,0,.57-.361c.2-.11.387-.23.571-.358a6.432,6.432,0,0,0,.583-.364,6.144,6.144,0,0,0,.589-.363,6.225,6.225,0,0,0,.59-.359,6.412,6.412,0,0,0,.592-.357,6.265,6.265,0,0,0,.592-.354,6.369,6.369,0,0,0,.583-.343,6.292,6.292,0,0,0,.58-.339,195.116,195.116,0,0,1,1.162-.668,6.132,6.132,0,0,0,.584-.328,6.5,6.5,0,0,0,.585-.326,5.906,5.906,0,0,0,.587-.323,6.245,6.245,0,0,0,.588-.319,127.147,127.147,0,0,1,1.179-.627,6.641,6.641,0,0,0,.592-.31,6.332,6.332,0,0,0,.592-.306,6.1,6.1,0,0,0,.6-.3,6.206,6.206,0,0,0,.594-.3,5.911,5.911,0,0,0,.6-.3,6.339,6.339,0,0,0,.615-.3,108.607,108.607,0,0,1,1.23-.594,6.284,6.284,0,0,0,.618-.293,6.2,6.2,0,0,0,.609-.285,92.612,92.612,0,0,1,1.208-.556,6.422,6.422,0,0,0,.6-.273,6.2,6.2,0,0,0,.607-.271,5.938,5.938,0,0,0,.607-.266,6.306,6.306,0,0,0,.609-.263,116.249,116.249,0,0,1,1.221-.517,6.306,6.306,0,0,0,.611-.253,6.388,6.388,0,0,0,.614-.251,6.512,6.512,0,0,0,.615-.246,6.42,6.42,0,0,0,.615-.244,6.17,6.17,0,0,0,.617-.241,6.566,6.566,0,0,0,.618-.236,136.422,136.422,0,0,1,1.253-.472,6.208,6.208,0,0,0,.636-.235,130.057,130.057,0,0,1,1.275-.459,6.607,6.607,0,0,0,.624-.221c.212-.063.42-.134.623-.217a114.68,114.68,0,0,1,1.248-.425,6.341,6.341,0,0,0,.626-.208,190.762,190.762,0,0,1,1.254-.4,6.513,6.513,0,0,0,.629-.2c.214-.055.424-.119.63-.195q.321-.08.631-.191a6.3,6.3,0,0,0,.631-.189,124.745,124.745,0,0,1,1.264-.365,6.37,6.37,0,0,0,.633-.178,6.024,6.024,0,0,0,.634-.175,6.361,6.361,0,0,0,.636-.172,189.336,189.336,0,0,1,1.294-.341,158.166,158.166,0,0,1,1.306-.331,6.311,6.311,0,0,0,.639-.159,6.078,6.078,0,0,0,.639-.154c.216-.041.43-.091.639-.151a6.316,6.316,0,0,0,.639-.149,6.035,6.035,0,0,0,.64-.145,6.128,6.128,0,0,0,.641-.142,131.574,131.574,0,0,1,1.284-.274,137.5,137.5,0,0,1,1.287-.261,177.289,177.289,0,0,1,1.288-.247,6.382,6.382,0,0,0,.644-.118,6.093,6.093,0,0,0,.646-.116,6.188,6.188,0,0,0,.647-.112,125.593,125.593,0,0,1,1.293-.214,6.263,6.263,0,0,0,.653-.1,6.56,6.56,0,0,0,.664-.1,6.492,6.492,0,0,0,.664-.1,6.35,6.35,0,0,0,.656-.1,139.6,139.6,0,0,1,1.3-.182,6.181,6.181,0,0,0,.65-.085,182.2,182.2,0,0,1,1.3-.162c.219-.015.437-.039.651-.076q.329-.021.65-.072a6.23,6.23,0,0,0,.651-.07,6,6,0,0,0,.652-.066,6.5,6.5,0,0,0,.651-.062c.221-.01.438-.029.652-.06.221-.009.438-.027.652-.056a6.268,6.268,0,0,0,.653-.053c.221-.005.438-.022.652-.049a103.564,103.564,0,0,1,1.306-.089c.221,0,.439-.016.653-.039.22,0,.439-.014.653-.036a6.291,6.291,0,0,0,.669-.036h.017c.22,0,.439-.012.654-.033h.032q.315,0,.621-.031c.022,0,.043,0,.065,0,.2,0,.4-.012.589-.03.033,0,.064.005.1.005.188,0,.373-.013.556-.029.044,0,.086.007.13.007.177,0,.352-.013.524-.027.055,0,.108.008.163.008.166,0,.328-.012.491-.024.065,0,.129.01.2.01.154,0,.307-.012.458-.023.077,0,.151.013.228.013.144,0,.284-.013.426-.022.087,0,.173.013.261.013.132,0,.262-.012.393-.019.1,0,.194.015.293.015.123,0,.242-.012.361-.018s.216.016.326.016.218-.011.328-.017.238.018.359.018c.1,0,.2-.01.3-.015.13.007.259.02.391.02.088,0,.175-.01.263-.013.141.009.28.021.424.021.078,0,.153-.01.231-.012.15.011.3.022.455.022.067,0,.132-.007.2-.01.162.012.324.025.489.025.055,0,.11-.006.165-.008.173.014.345.027.521.027.046,0,.088-.005.133-.007.183.015.367.028.554.028.034,0,.066,0,.1-.005.193.018.388.03.586.03.023,0,.045,0,.068,0,.2.019.409.031.618.031l.035,0a6.257,6.257,0,0,0,.651.033h.018a6.558,6.558,0,0,0,.669.035h0c.215.022.434.035.654.036.215.023.432.037.654.039.214.025.433.039.653.043a127.134,127.134,0,0,1,1.305.095,5.99,5.99,0,0,0,.652.052,136.375,136.375,0,0,1,1.3.116,106.177,106.177,0,0,1,1.3.128,135.861,135.861,0,0,1,1.3.142c.213.035.429.061.65.076a123.733,123.733,0,0,1,1.3.161,6.516,6.516,0,0,0,.65.085,6.2,6.2,0,0,0,.649.089,6.477,6.477,0,0,0,.649.092,6.261,6.261,0,0,0,.654.1,214.4,214.4,0,0,1,1.328.2,6.007,6.007,0,0,0,.655.1,157.241,157.241,0,0,1,1.293.214,128.039,128.039,0,0,1,1.291.227,101.176,101.176,0,0,1,1.289.241,94.858,94.858,0,0,1,1.287.254,6.487,6.487,0,0,0,.644.131,6.129,6.129,0,0,0,.641.135q.315.085.642.138a6.373,6.373,0,0,0,.64.141,6.154,6.154,0,0,0,.641.145,142.333,142.333,0,0,1,1.278.3,207.442,207.442,0,0,1,1.277.313,225.48,225.48,0,0,1,1.306.33,6.368,6.368,0,0,0,.652.17,6.289,6.289,0,0,0,.643.17,6.038,6.038,0,0,0,.636.171,6.232,6.232,0,0,0,.634.175,6.559,6.559,0,0,0,.634.178,90.882,90.882,0,0,1,1.263.364,6.056,6.056,0,0,0,.632.187,6.208,6.208,0,0,0,.631.191,5.953,5.953,0,0,0,.629.194,6.284,6.284,0,0,0,.63.2,6.5,6.5,0,0,0,.626.2,6.578,6.578,0,0,0,.629.2,6.477,6.477,0,0,0,.624.207,6.258,6.258,0,0,0,.626.21,5.946,5.946,0,0,0,.623.214,6.237,6.237,0,0,0,.624.217,6.513,6.513,0,0,0,.622.221,6.438,6.438,0,0,0,.637.228,6.561,6.561,0,0,0,.637.23,6.293,6.293,0,0,0,.637.235,200.863,200.863,0,0,1,1.255.472,6.348,6.348,0,0,0,.618.236,6.216,6.216,0,0,0,.616.24,6.435,6.435,0,0,0,.616.244,6.333,6.333,0,0,0,.615.246,6.462,6.462,0,0,0,.614.25,6.315,6.315,0,0,0,.612.252,133.176,133.176,0,0,1,1.222.517,6.306,6.306,0,0,0,.608.263,160.994,160.994,0,0,1,1.214.536,6.6,6.6,0,0,0,.606.273,129.654,129.654,0,0,1,1.207.555,6.093,6.093,0,0,0,.608.285,6.625,6.625,0,0,0,.617.292,6.541,6.541,0,0,0,.617.3,6.416,6.416,0,0,0,.615.3,550.253,550.253,0,0,1,1.214.6,6.1,6.1,0,0,0,.6.3,6.234,6.234,0,0,0,.595.3,156.014,156.014,0,0,1,1.184.614,113.227,113.227,0,0,1,1.18.627,6.254,6.254,0,0,0,.588.32,6.515,6.515,0,0,0,.587.322,6.252,6.252,0,0,0,.585.325,6.388,6.388,0,0,0,.584.329,6.525,6.525,0,0,0,.582.331c.188.121.381.232.582.336a6.529,6.529,0,0,0,.579.338,245.349,245.349,0,0,1,1.174.7,172.682,172.682,0,0,1,1.182.716,163.824,163.824,0,0,1,1.174.727,6.406,6.406,0,0,0,.571.359,6.6,6.6,0,0,0,.569.361,6.213,6.213,0,0,0,.569.364,6.148,6.148,0,0,0,.565.368,6.231,6.231,0,0,0,.566.372,6.584,6.584,0,0,0,.562.374,132.317,132.317,0,0,1,1.122.758,6.254,6.254,0,0,0,.558.385c.178.138.364.267.556.388a6.47,6.47,0,0,0,.555.39,6.1,6.1,0,0,0,.554.394,6.3,6.3,0,0,0,.551.4,6.731,6.731,0,0,0,.557.4,6.4,6.4,0,0,0,.565.413,121.748,121.748,0,0,1,1.124.837,6.214,6.214,0,0,0,.559.423,6.4,6.4,0,0,0,.557.427,6.484,6.484,0,0,0,.544.419,116.22,116.22,0,0,1,1.078.845,6.3,6.3,0,0,0,.537.427,6.532,6.532,0,0,0,.535.43,6.268,6.268,0,0,0,.533.432,6.161,6.161,0,0,0,.531.437,6.32,6.32,0,0,0,.529.44,6,6,0,0,0,.527.443,6.4,6.4,0,0,0,.525.447,123.607,123.607,0,0,1,1.044.9,6.386,6.386,0,0,0,.52.456,6.514,6.514,0,0,0,.531.47,6.6,6.6,0,0,0,.531.474,6.443,6.443,0,0,0,.53.478,6.6,6.6,0,0,0,.527.48,6.457,6.457,0,0,0,.525.485,186.792,186.792,0,0,1,1.036.968,6.157,6.157,0,0,0,.507.479,6.368,6.368,0,0,0,.5.483,127.79,127.79,0,0,1,1,.976,6.2,6.2,0,0,0,.5.493,6.394,6.394,0,0,0,.5.5,91.482,91.482,0,0,1,.982,1,6.182,6.182,0,0,0,.487.5,215.415,215.415,0,0,1,.963,1.011,306.44,306.44,0,0,1,.967,1.034,111.768,111.768,0,0,1,.966,1.054,6.807,6.807,0,0,0,.477.529,6.613,6.613,0,0,0,.475.531,256.883,256.883,0,0,1,.927,1.051,123.824,123.824,0,0,1,.9,1.044,6.557,6.557,0,0,0,.448.525,154.707,154.707,0,0,1,.883,1.056,154.092,154.092,0,0,1,.87,1.064,103.66,103.66,0,0,1,.858,1.071,6.283,6.283,0,0,0,.424.538,6.65,6.65,0,0,0,.421.54,6.454,6.454,0,0,0,.419.543,6.606,6.606,0,0,0,.427.557,6.2,6.2,0,0,0,.424.559,219.7,219.7,0,0,1,.837,1.124,6.69,6.69,0,0,0,.413.565,160.152,160.152,0,0,1,.8,1.108,6.136,6.136,0,0,0,.394.554,139.05,139.05,0,0,1,.779,1.111,6.491,6.491,0,0,0,.383.558,119.255,119.255,0,0,1,.76,1.121,6.493,6.493,0,0,0,.374.564,107.423,107.423,0,0,1,.739,1.13,6.288,6.288,0,0,0,.365.568,6.062,6.062,0,0,0,.361.569,6.2,6.2,0,0,0,.359.572,6.455,6.455,0,0,0,.363.584,6.342,6.342,0,0,0,.363.589,141.675,141.675,0,0,1,.716,1.181,6.428,6.428,0,0,0,.352.593,125.7,125.7,0,0,1,.683,1.161,6.16,6.16,0,0,0,.335.581,6.274,6.274,0,0,0,.332.583,6.452,6.452,0,0,0,.329.584,6.316,6.316,0,0,0,.325.585,6.483,6.483,0,0,0,.322.586,6.245,6.245,0,0,0,.32.588,172.678,172.678,0,0,1,.627,1.18,6.48,6.48,0,0,0,.309.591,6.188,6.188,0,0,0,.306.593,6.5,6.5,0,0,0,.3.594,6.627,6.627,0,0,0,.3.6,6.3,6.3,0,0,0,.3.6,192.491,192.491,0,0,1,.6,1.228,96.108,96.108,0,0,1,.588,1.234,6.276,6.276,0,0,0,.286.609,6.1,6.1,0,0,0,.28.6,6.474,6.474,0,0,0,.275.6c.082.207.173.409.274.606a97.53,97.53,0,0,1,.536,1.214,6.544,6.544,0,0,0,.263.608,6.277,6.277,0,0,0,.26.609,136.712,136.712,0,0,1,.51,1.224,6.123,6.123,0,0,0,.25.612,175.1,175.1,0,0,1,.49,1.23,6.518,6.518,0,0,0,.24.616,6.273,6.273,0,0,0,.238.618,6.507,6.507,0,0,0,.233.619,6.576,6.576,0,0,0,.239.635,5.988,5.988,0,0,0,.234.636,6.243,6.243,0,0,0,.231.637,231.854,231.854,0,0,1,.448,1.261c.063.212.134.42.217.623a151.538,151.538,0,0,1,.425,1.248,104.069,104.069,0,0,1,.411,1.253,92.09,92.09,0,0,1,.4,1.257,6.333,6.333,0,0,0,.195.63,6.041,6.041,0,0,0,.191.63,6.315,6.315,0,0,0,.188.632,6.231,6.231,0,0,0,.184.631,6.451,6.451,0,0,0,.181.633,6.275,6.275,0,0,0,.178.634,6.166,6.166,0,0,0,.175.635c.046.215.1.426.171.634a6.476,6.476,0,0,0,.171.643,6.1,6.1,0,0,0,.17.652,6.338,6.338,0,0,0,.167.653,6.168,6.168,0,0,0,.164.654,6.1,6.1,0,0,0,.158.638,6.29,6.29,0,0,0,.156.638,127.458,127.458,0,0,1,.3,1.279,130.756,130.756,0,0,1,.286,1.282,6.164,6.164,0,0,0,.139.641,6.053,6.053,0,0,0,.135.642,6.151,6.151,0,0,0,.132.643,6.373,6.373,0,0,0,.128.642,6.152,6.152,0,0,0,.126.644,6.425,6.425,0,0,0,.121.645,101.847,101.847,0,0,1,.234,1.29,129.219,129.219,0,0,1,.221,1.293,6.48,6.48,0,0,0,.105.647,6.286,6.286,0,0,0,.1.653,201.926,201.926,0,0,1,.2,1.328,6.272,6.272,0,0,0,.1.655,101.618,101.618,0,0,1,.181,1.3,6.508,6.508,0,0,0,.086.65,6.215,6.215,0,0,0,.082.65,6.459,6.459,0,0,0,.079.649c.015.221.039.438.076.652q.021.329.074.65a6.263,6.263,0,0,0,.069.652,6.477,6.477,0,0,0,.065.65c.011.221.032.439.063.653a6.485,6.485,0,0,0,.06.651,6.322,6.322,0,0,0,.056.653,184.175,184.175,0,0,1,.1,1.3,6.286,6.286,0,0,0,.046.653c0,.222.018.439.043.653a103.266,103.266,0,0,1,.077,1.307,6.3,6.3,0,0,0,.035.669v.017c0,.221.012.438.033.653l0,.033c0,.21.012.417.032.621,0,.022,0,.043,0,.065,0,.2.012.394.03.587,0,.034-.005.066-.005.1,0,.188.013.373.028.557,0,.044-.006.085-.006.13,0,.176.013.349.027.522,0,.055-.008.109-.008.164,0,.165.013.328.026.491,0,.065-.011.13-.011.2,0,.154.013.306.023.457,0,.077-.012.152-.012.229,0,.144.013.284.021.426,0,.087-.013.173-.013.261,0,.132.012.261.02.392,0,.1-.015.195-.015.294,0,.123.011.241.018.36s-.017.216-.017.327.011.218.017.328-.018.238-.018.359c0,.1.011.2.015.294-.009.131-.02.26-.02.392,0,.089.01.175.014.262-.01.142-.021.282-.021.425,0,.078.008.153.01.23-.01.151-.022.3-.022.456,0,.067.008.131.01.2-.013.162-.025.325-.025.49,0,.055.006.11.007.164-.013.173-.026.346-.026.523,0,.045.005.087.006.132-.016.182-.028.366-.028.554,0,.033,0,.066,0,.1-.017.193-.029.389-.029.587,0,.022,0,.045,0,.067-.02.2-.032.41-.032.62l0,.033a6.3,6.3,0,0,0-.033.653v.016a6.291,6.291,0,0,0-.035.67h0a6.027,6.027,0,0,0-.036.654c-.025.214-.037.432-.041.653-.024.214-.039.432-.043.653a132.869,132.869,0,0,1-.095,1.306c-.029.214-.046.43-.053.651a98.441,98.441,0,0,1-.115,1.3,132.587,132.587,0,0,1-.129,1.3c-.034.214-.056.431-.069.651a82.426,82.426,0,0,1-.148,1.3,6.5,6.5,0,0,0-.079.65c-.038.214-.065.43-.082.65a6.274,6.274,0,0,0-.085.65,127.122,127.122,0,0,1-.182,1.3,6.618,6.618,0,0,0-.1.655,112.9,112.9,0,0,1-.2,1.328,6.535,6.535,0,0,0-.1.654,6.36,6.36,0,0,0-.106.647,130.053,130.053,0,0,1-.22,1.292,96.838,96.838,0,0,1-.234,1.29,6.471,6.471,0,0,0-.121.644c-.052.212-.094.426-.126.644a6.424,6.424,0,0,0-.128.643q-.081.315-.132.642a6.363,6.363,0,0,0-.134.642,142.068,142.068,0,0,1-.28,1.284,6.381,6.381,0,0,0-.145.64,143.494,143.494,0,0,1-.3,1.278,6.319,6.319,0,0,0-.156.639q-.094.312-.158.638a140.723,140.723,0,0,1-.331,1.306,6.7,6.7,0,0,0-.17.652,6.541,6.541,0,0,0-.17.644,6.28,6.28,0,0,0-.17.634,118.7,118.7,0,0,1-.353,1.268,127.536,127.536,0,0,1-.365,1.264c-.073.206-.135.417-.187.631a6.04,6.04,0,0,0-.191.632,6.17,6.17,0,0,0-.194.627,6.372,6.372,0,0,0-.2.63,104.908,104.908,0,0,1-.4,1.255,103.314,103.314,0,0,1-.418,1.251,6.277,6.277,0,0,0-.214.624,124.673,124.673,0,0,1-.438,1.245,6.568,6.568,0,0,0-.228.638q-.131.312-.231.637a6.516,6.516,0,0,0-.234.637,155.209,155.209,0,0,1-.472,1.254,6.556,6.556,0,0,0-.236.617,6.17,6.17,0,0,0-.241.618,6.4,6.4,0,0,0-.243.615,6.265,6.265,0,0,0-.246.615,6.124,6.124,0,0,0-.25.613,6.274,6.274,0,0,0-.254.613,6.576,6.576,0,0,0-.257.611,114.289,114.289,0,0,1-.523,1.219,140.841,140.841,0,0,1-.536,1.214,121.7,121.7,0,0,1-.549,1.209,6.5,6.5,0,0,0-.28.6,6.314,6.314,0,0,0-.284.608,6.1,6.1,0,0,0-.292.618,199.069,199.069,0,0,1-.594,1.23,229.234,229.234,0,0,1-.6,1.213,6.5,6.5,0,0,0-.3.6,6.19,6.19,0,0,0-.3.593,6.369,6.369,0,0,0-.307.594,155.707,155.707,0,0,1-.621,1.182,113.991,113.991,0,0,1-.634,1.176,6.452,6.452,0,0,0-.322.587,6.3,6.3,0,0,0-.326.585,6.521,6.521,0,0,0-.328.584,146.512,146.512,0,0,1-.667,1.163,6.282,6.282,0,0,0-.339.58,6.217,6.217,0,0,0-.343.582,163.833,163.833,0,0,1-.709,1.185,113.055,113.055,0,0,1-.722,1.179,179.111,179.111,0,0,1-.722,1.156,6.155,6.155,0,0,0-.361.569,6.522,6.522,0,0,0-.365.568,6.61,6.61,0,0,0-.368.566,6.476,6.476,0,0,0-.372.566,6.3,6.3,0,0,0-.374.563,6.737,6.737,0,0,0-.378.561q-.2.27-.381.56a97.5,97.5,0,0,1-.771,1.114,152.07,152.07,0,0,1-.784,1.108,6.3,6.3,0,0,0-.4.552,6.094,6.094,0,0,0-.4.557,6.316,6.316,0,0,0-.415.564,6.542,6.542,0,0,0-.417.563,6.237,6.237,0,0,0-.421.561,6.376,6.376,0,0,0-.423.558,6.2,6.2,0,0,0-.427.558,6.315,6.315,0,0,0-.419.543,119.369,119.369,0,0,1-.845,1.078,6.706,6.706,0,0,0-.427.536,6.5,6.5,0,0,0-.43.536,122.67,122.67,0,0,1-.87,1.063,153.959,153.959,0,0,1-.883,1.056,6.383,6.383,0,0,0-.446.525,203.8,203.8,0,0,1-.9,1.045,248.631,248.631,0,0,1-.926,1.05,6.439,6.439,0,0,0-.475.531,6.266,6.266,0,0,0-.477.53,6.072,6.072,0,0,0-.481.527,6.417,6.417,0,0,0-.485.525,6.862,6.862,0,0,0-.488.523,167.176,167.176,0,0,1-.96,1.019,6.184,6.184,0,0,0-.483.5,6.36,6.36,0,0,0-.487.5,6.64,6.64,0,0,0-.489.5,6.424,6.424,0,1,0,8.549,9.484,161.257,161.257,0,0,0,1.636-1.668,130.3,130.3,0,0,0,1.6-1.681,171.752,171.752,0,0,0,1.533-1.663,127.677,127.677,0,0,0,1.5-1.682,6.233,6.233,0,0,0,.506-.58,6.4,6.4,0,0,0,.5-.582,127.032,127.032,0,0,0,.995-1.168,6.345,6.345,0,0,0,.493-.588,113.082,113.082,0,0,0,.975-1.178,132.767,132.767,0,0,0,1.437-1.78,151.787,151.787,0,0,0,.942-1.2,6.446,6.446,0,0,0,.464-.6,6.325,6.325,0,0,0,.449-.588,6.18,6.18,0,0,0,.446-.59,148.036,148.036,0,0,0,.883-1.185,150.849,150.849,0,0,0,.875-1.2,6.262,6.262,0,0,0,.44-.615,6.352,6.352,0,0,0,.437-.616,6.558,6.558,0,0,0,.433-.618,6.452,6.452,0,0,0,.43-.619,6.114,6.114,0,0,0,.426-.621,6.326,6.326,0,0,0,.423-.621,6.423,6.423,0,0,0,.42-.624,6.265,6.265,0,0,0,.417-.625,6.175,6.175,0,0,0,.412-.625,6.306,6.306,0,0,0,.41-.629,6.169,6.169,0,0,0,.407-.63,6.459,6.459,0,0,0,.4-.631,6.363,6.363,0,0,0,.4-.632,6.557,6.557,0,0,0,.388-.622,6.423,6.423,0,0,0,.381-.62,123.021,123.021,0,0,0,.754-1.245,6.092,6.092,0,0,0,.372-.624,110.435,110.435,0,0,0,.748-1.283,6.058,6.058,0,0,0,.371-.645,6.218,6.218,0,0,0,.366-.646,6.1,6.1,0,0,0,.363-.648,162.261,162.261,0,0,0,1.421-2.6,6.371,6.371,0,0,0,.346-.654,139.769,139.769,0,0,0,1.021-1.97,6.127,6.127,0,0,0,.333-.658,6.493,6.493,0,0,0,.329-.657,6.7,6.7,0,0,0,.317-.647,6.367,6.367,0,0,0,.314-.647,6.465,6.465,0,0,0,.31-.649,6.137,6.137,0,0,0,.308-.65,6.227,6.227,0,0,0,.308-.66,6.443,6.443,0,0,0,.308-.668,6.66,6.66,0,0,0,.3-.669,6.479,6.479,0,0,0,.3-.671,6.639,6.639,0,0,0,.3-.671,6.165,6.165,0,0,0,.293-.673,6.012,6.012,0,0,0,.291-.674,6.3,6.3,0,0,0,.287-.674,6.382,6.382,0,0,0,.283-.675,113.257,113.257,0,0,0,.558-1.355,165.132,165.132,0,0,0,.544-1.358,6.394,6.394,0,0,0,.267-.681,6.5,6.5,0,0,0,.264-.682,6.235,6.235,0,0,0,.26-.682,108.221,108.221,0,0,0,.5-1.336,160.586,160.586,0,0,0,.483-1.34,6.033,6.033,0,0,0,.241-.688,6.246,6.246,0,0,0,.239-.689,219.458,219.458,0,0,0,.464-1.379,6.443,6.443,0,0,0,.228-.691,6.363,6.363,0,0,0,.224-.692,6.12,6.12,0,0,0,.221-.694,230.76,230.76,0,0,0,.433-1.388,6.552,6.552,0,0,0,.211-.7,153.845,153.845,0,0,0,.614-2.09,221.079,221.079,0,0,0,.392-1.4,6.455,6.455,0,0,0,.192-.7,6.642,6.642,0,0,0,.184-.693,6.43,6.43,0,0,0,.179-.685,125.837,125.837,0,0,0,.347-1.372,109.173,109.173,0,0,0,.34-1.407,144.937,144.937,0,0,0,.327-1.41,232.18,232.18,0,0,0,.313-1.411,6.716,6.716,0,0,0,.151-.707,6.2,6.2,0,0,0,.148-.706,171.2,171.2,0,0,0,.287-1.417,6,6,0,0,0,.138-.71,6.448,6.448,0,0,0,.135-.709,6.368,6.368,0,0,0,.132-.709,118.2,118.2,0,0,0,.254-1.421,6.252,6.252,0,0,0,.122-.711,6.591,6.591,0,0,0,.118-.713,6.377,6.377,0,0,0,.114-.705,158.247,158.247,0,0,0,.212-1.393,6.648,6.648,0,0,0,.1-.706,276.281,276.281,0,0,0,.194-1.43,119.908,119.908,0,0,0,.181-1.429,276.047,276.047,0,0,0,.168-1.431,6.616,6.616,0,0,0,.079-.717,169.45,169.45,0,0,0,.461-5.018,287,287,0,0,0,.1-1.436,6.644,6.644,0,0,0,.046-.718,6.391,6.391,0,0,0,.043-.718h0a6.331,6.331,0,0,0,.038-.685v-.017a6.612,6.612,0,0,0,.035-.669l0-.034a6.311,6.311,0,0,0,.033-.652c0-.024,0-.045,0-.067.02-.2.032-.411.032-.62,0-.033-.005-.065-.005-.1.018-.193.03-.389.03-.587,0-.045-.007-.087-.008-.132.016-.183.029-.368.029-.554,0-.056-.007-.11-.008-.165.014-.173.027-.345.027-.522,0-.066-.009-.131-.011-.2.013-.162.026-.324.026-.49,0-.077-.01-.152-.012-.229.011-.151.023-.3.023-.457,0-.088-.011-.175-.014-.262.01-.141.021-.281.021-.425,0-.1-.011-.2-.015-.294.009-.131.02-.26.02-.392C968.073,797.659,968.062,797.551,968.056,797.442Z" transform="translate(-670.887 -648.499)" fill="#f2f2f2"/>
</svg>
