<svg xmlns="http://www.w3.org/2000/svg" width="22.759" height="22.759" viewBox="0 0 22.759 22.759">
  <path id="Path_312" data-name="Path 312" d="M114.819,51.366l-9.1-6.828-9.1,6.828a5.691,5.691,0,0,0-2.276,4.552V63.7A3.592,3.592,0,0,0,97.929,67.3H113.5A3.592,3.592,0,0,0,117.1,63.7V55.918A5.691,5.691,0,0,0,114.819,51.366ZM108.811,66.3H102.62V64.4a3.1,3.1,0,1,1,6.192,0Zm7.291-2.6a2.6,2.6,0,0,1-2.6,2.6h-3.7V64.4a4.088,4.088,0,0,0-8.177,0v1.9h-3.7a2.6,2.6,0,0,1-2.6-2.6V55.918a4.72,4.72,0,0,1,1.879-3.758l8.508-6.381,8.508,6.381a4.72,4.72,0,0,1,1.879,3.758Z" transform="translate(-94.336 -44.538)"/>
</svg>
