<svg id="Group_258" data-name="Group 258" xmlns="http://www.w3.org/2000/svg" width="25.055" height="21.904" viewBox="0 0 25.055 21.904">
  <g id="Group_257" data-name="Group 257" transform="translate(0 0)">
    <path id="Path_346" data-name="Path 346" d="M387.489,198.845a3.465,3.465,0,1,0-3.465,3.465A3.47,3.47,0,0,0,387.489,198.845Z" transform="translate(-373.338 -191.71)"/>
    <path id="Path_347" data-name="Path 347" d="M387.265,195.254a10.952,10.952,0,1,0,0,7.368c.777-2.2,2.185-3.684,3.8-3.684C389.45,198.938,388.042,197.459,387.265,195.254ZM384.9,206.161a.435.435,0,0,1-.084.007.476.476,0,0,1-.468-.393,7.558,7.558,0,0,0-14.882,0,.476.476,0,0,1-.937-.166,8.495,8.495,0,0,1,5.96-6.668,4.419,4.419,0,1,1,4.551-.081,8.5,8.5,0,0,1,6.246,6.749A.476.476,0,0,1,384.9,206.161Z" transform="translate(-366.009 -187.986)"/>
  </g>
  <g id="Path_348" data-name="Path 348" transform="translate(-366.009 -187.986)" fill="none" stroke-miterlimit="10">
    <path d="M387.265,195.254a10.952,10.952,0,1,0,0,7.368c.777-2.2,2.185-3.684,3.8-3.684C389.45,198.938,388.042,197.459,387.265,195.254Z" stroke="none"/>
    <path d="M 376.9617919921875 188.9860076904297 C 371.4737854003906 188.9860076904297 367.0089721679688 193.4505615234375 367.0089721679688 198.938232421875 C 367.0089721679688 204.4261932373047 371.4737854003906 208.8909912109375 376.9617919921875 208.8909912109375 C 379.0531921386719 208.8909912109375 381.0531311035156 208.2481994628906 382.7453918457031 207.0321044921875 C 384.401611328125 205.8419342041016 385.6392211914062 204.2004852294922 386.3228454589844 202.2897338867188 C 386.8369140625 200.8308868408203 387.5838928222656 199.686767578125 388.4751892089844 198.9385833740234 C 387.5836791992188 198.1908264160156 386.8370666503906 197.0476531982422 386.3238830566406 195.5907440185547 C 385.6387634277344 193.6756591796875 384.4012145996094 192.0344085693359 382.7450256347656 190.8444366455078 C 381.0528869628906 189.6286315917969 379.0530700683594 188.9860076904297 376.9617919921875 188.9860076904297 M 376.9617919921875 187.9860076904297 C 381.7160949707031 187.9860076904297 385.7508850097656 191.0202026367188 387.2654418945312 195.25390625 C 388.0421447753906 197.4588470458984 389.4501037597656 198.938232421875 391.06396484375 198.938232421875 C 389.4505615234375 198.938232421875 388.0426635742188 200.4181213378906 387.2659912109375 202.6220855712891 C 385.7513427734375 206.8557891845703 381.7166137695312 209.8909912109375 376.9617919921875 209.8909912109375 C 370.9126892089844 209.8909912109375 366.0089721679688 204.9873199462891 366.0089721679688 198.938232421875 C 366.0089721679688 192.8896636962891 370.9126892089844 187.9860076904297 376.9617919921875 187.9860076904297 Z" stroke="none"/>
  </g>
</svg>
