<svg xmlns="http://www.w3.org/2000/svg" width="26.64" height="23.4" viewBox="0 0 26.64 23.4">
  <path id="Path_368" data-name="Path 368" d="M380.978,58.861c-1.714,0-3.209-1.571-4.034-3.913a11.626,11.626,0,0,0-22.338,1.569c-.047.224-.086.45-.12.679a11.63,11.63,0,0,0,22.448,5.623c.825-2.341,2.32-3.912,4.033-3.912a2.819,2.819,0,0,1-.34-.022A2.777,2.777,0,0,1,380.978,58.861ZM365.94,69.531a10.5,10.5,0,0,1-7.87-3.554A8.018,8.018,0,0,1,373.793,66,10.5,10.5,0,0,1,365.94,69.531Zm-.233-11a3.68,3.68,0,1,1,3.68-3.68A3.684,3.684,0,0,1,365.707,58.533Zm10.548,2.614A10.479,10.479,0,0,1,374.587,65a9.016,9.016,0,0,0-6.393-6.175,4.691,4.691,0,1,0-4.833.085,9.018,9.018,0,0,0-6.083,6.07,10.512,10.512,0,1,1,18.977-3.832Z" transform="translate(-354.338 -47.23)"/>
</svg>
