<svg id="Group_295" data-name="Group 295" xmlns="http://www.w3.org/2000/svg" width="21.816" height="21.815" viewBox="0 0 21.816 21.815">
  <path id="Path_338" data-name="Path 338" d="M1091.206,94.85h-2.492v15.625h2.492Zm-.7,14.923h-1.089V95.552h1.089Z" transform="translate(-1082.39 -93.001)"/>
  <path id="Path_339" data-name="Path 339" d="M1102.519,110.593h-2.492v7.812h2.492Zm-.7,7.111h-1.089v-6.409h1.089Z" transform="translate(-1088.089 -100.931)"/>
  <path id="Path_340" data-name="Path 340" d="M1112.586,123.806a1.246,1.246,0,1,0-1.246-1.246A1.246,1.246,0,0,0,1112.586,123.806Zm0-1.79a.544.544,0,1,1-.544.544A.545.545,0,0,1,1112.586,122.016Z" transform="translate(-1093.787 -106.331)"/>
  <path id="Path_341" data-name="Path 341" d="M1078.463,110.447V91.124h-2.492V112.94h21.816v-2.492Zm18.622,1.791h-20.412V91.826h1.089v19.323h19.324Z" transform="translate(-1075.971 -91.124)"/>
</svg>
