<svg xmlns="http://www.w3.org/2000/svg" width="198" height="140.856" viewBox="0 0 198 140.856">
  <g id="Symbol_43_1" data-name="Symbol 43 – 1" transform="translate(-438 -810)">
    <text id="When_you_made_buddy_You_can_talk_to_them_here." data-name="When you made buddy,
You can talk to them here." transform="translate(537 825)" font-size="17" font-family="ArialMT, Arial"><tspan x="-89.146" y="0">When you made buddy,</tspan><tspan x="-98.443" y="18">You can talk to them here.</tspan></text>
    <g id="Group_348" data-name="Group 348" transform="translate(489.951 858)">
      <ellipse id="Ellipse_1605" data-name="Ellipse 1605" cx="5.512" cy="5.512" rx="5.512" ry="5.512" transform="translate(63.648 42.799)"/>
      <path id="Path_317" data-name="Path 317" d="M297.774,65.685a5.513,5.513,0,1,0,5.51,5.512A5.512,5.512,0,0,0,297.774,65.685Z" transform="translate(-274.077 -22.886)"/>
      <ellipse id="Ellipse_1606" data-name="Ellipse 1606" cx="5.512" cy="5.512" rx="5.512" ry="5.512" transform="translate(40.916 42.799)"/>
      <path id="Path_318" data-name="Path 318" d="M352.466,132.513a46.433,46.433,0,1,0-22.391,5.752c.728,0,1.448-.021,2.166-.055-.323.017-.64.049-.963.057h45.227a46.151,46.151,0,0,1-23.182-6.217C353.042,132.213,352.749,132.356,352.466,132.513Zm-22.391,1.53a42.206,42.206,0,1,1,42.208-42.206A42.254,42.254,0,0,1,330.076,134.043Z" transform="translate(-283.648 -45.41)"/>
    </g>
  </g>
</svg>
