<svg xmlns="http://www.w3.org/2000/svg" width="21.816" height="21.815" viewBox="0 0 21.816 21.815">
  <path id="Path_489" data-name="Path 489" d="M948.665,27.085h.1a1.911,1.911,0,0,1-1.911-1.911H948.3a2.156,2.156,0,0,0,2.175-1.89,2.1,2.1,0,0,0-2.085-2.3H930.851a2.156,2.156,0,0,0-2.175,1.889,2.1,2.1,0,0,0,2.085,2.3h1.529a1.911,1.911,0,0,1-1.911,1.911h.1a1.817,1.817,0,0,0-1.817,1.817V42.8h21.816V28.9A1.817,1.817,0,0,0,948.665,27.085Zm.824,14.722H940.07V39a4.464,4.464,0,0,1,3.971-2.427h-.375a4.09,4.09,0,1,0-4.092-4.09V38.3h0V32.48a4.09,4.09,0,1,0-4.092,4.09h-.375A4.462,4.462,0,0,1,939.077,39v2.81h-9.419V28.9a.825.825,0,0,1,.824-.824,1,1,0,0,0,.145-.011,2.907,2.907,0,0,0,2.655-2.892.993.993,0,0,0-.993-.993h-1.529a1.1,1.1,0,0,1-1.1-1.214,1.161,1.161,0,0,1,1.187-.991h17.536a1.1,1.1,0,0,1,1.1,1.214,1.162,1.162,0,0,1-1.188.991h-1.439a.993.993,0,0,0-.992.993,2.907,2.907,0,0,0,2.654,2.892,1.012,1.012,0,0,0,.146.011.825.825,0,0,1,.824.824Z" transform="translate(-928.666 -20.984)"/>
</svg>
