<svg xmlns="http://www.w3.org/2000/svg" width="23.088" height="22.39" viewBox="0 0 23.088 22.39">
  <path id="Path_490" data-name="Path 490" d="M1010.21,25.761a4.95,4.95,0,0,0-3.611-1.514,5.646,5.646,0,0,0-3.89,1.589l-13.092,12.5-1.143,8.3,8.225-.881,10.7-10.218h0l1.245-1.189,1.149-1.1A5.31,5.31,0,0,0,1010.21,25.761Zm-3.611-.522a3.906,3.906,0,0,1,3.964,4.2,4.645,4.645,0,0,1-1.458,3.1l-.166.159-5.712-5.98.166-.159A4.636,4.636,0,0,1,1006.6,25.24ZM996.258,44.8l-6.628.709.922-6.695L1001,28.84l5.712,5.98Z" transform="translate(-988.474 -24.247)"/>
</svg>
