<svg xmlns="http://www.w3.org/2000/svg" width="21.83" height="21.83" viewBox="0 0 21.83 21.83">
  <g id="Group_246" data-name="Group 246" transform="translate(0)">
    <path id="Path_319" data-name="Path 319" d="M302.441,227.579a10.916,10.916,0,1,0-5.266,1.353c.169,0,.338-.005.506-.013-.075,0-.149.011-.224.013H308.09a10.855,10.855,0,0,1-5.45-1.461C302.575,227.509,302.507,227.542,302.441,227.579Zm.078-10.415a1.3,1.3,0,1,1-1.3,1.3A1.3,1.3,0,0,1,302.519,217.163Zm-10.688,2.592a1.3,1.3,0,1,1,1.3-1.3A1.3,1.3,0,0,1,291.831,219.755Zm5.344,0a1.3,1.3,0,1,1,1.3-1.3A1.3,1.3,0,0,1,297.175,219.755Z" transform="translate(-286.26 -207.102)"/>
  </g>
</svg>
