<svg xmlns="http://www.w3.org/2000/svg" width="23.79" height="20.601" viewBox="0 0 23.79 20.601" fill="white">
    <g id="Group_265" data-name="Group 265" transform="translate(0)">
        <path id="Path_315" data-name="Path 315" d="M243.268,63.193h-3.192a.875.875,0,0,1-.874-.875V59.126a1.073,1.073,0,0,0-2.145,0v3.192a.875.875,0,0,1-.874.875h-3.192a1.072,1.072,0,1,0,0,2.145h3.193a.874.874,0,0,1,.874.874v3.193a1.073,1.073,0,0,0,2.145,0V66.213a.874.874,0,0,1,.874-.874h3.193a1.072,1.072,0,1,0,0-2.145Z" transform="translate(-226.234 -52.426)"/>
        <path id="Path_316" data-name="Path 316" d="M240.775,50.193a11.9,11.9,0,0,0-16.83,16.83.993.993,0,1,0,1.4-1.4,9.915,9.915,0,1,1,14.022,0,.993.993,0,0,0,1.4,1.4A11.914,11.914,0,0,0,240.775,50.193Z" transform="translate(-220.465 -46.712)"/>
    </g>
</svg>
