<svg id="Group_245" data-name="Group 245" xmlns="http://www.w3.org/2000/svg" width="21.831" height="21.83" viewBox="0 0 21.831 21.83">
  <ellipse id="Ellipse_1605" data-name="Ellipse 1605" cx="1.296" cy="1.296" rx="1.296" ry="1.296" transform="translate(14.964 10.062)"/>
  <path id="Path_317" data-name="Path 317" d="M293.559,65.685a1.3,1.3,0,1,0,1.3,1.3A1.3,1.3,0,0,0,293.559,65.685Z" transform="translate(-287.988 -55.623)"/>
  <ellipse id="Ellipse_1606" data-name="Ellipse 1606" cx="1.296" cy="1.296" rx="1.296" ry="1.296" transform="translate(9.619 10.062)"/>
  <path id="Path_318" data-name="Path 318" d="M299.827,65.888a10.916,10.916,0,1,0-5.264,1.352c.171,0,.34,0,.509-.013-.076,0-.15.011-.226.013h10.633a10.85,10.85,0,0,1-5.45-1.462C299.963,65.817,299.894,65.851,299.827,65.888Zm-5.264.36a9.922,9.922,0,1,1,9.923-9.922A9.934,9.934,0,0,1,294.563,66.248Z" transform="translate(-283.648 -45.41)"/>
</svg>
