<svg xmlns="http://www.w3.org/2000/svg" width="22.759" height="22.712" viewBox="0 0 22.759 22.712">
  <g id="Group_301" data-name="Group 301" transform="translate(0 0)">
    <path id="Path_336" data-name="Path 336" d="M1166.836,91.683V87.672a1.653,1.653,0,0,0-3.305,0v4.011h-11.468V87.672a1.653,1.653,0,0,0-3.305,0v4.011h-2.3v17.048h22.759V91.683Zm1.393,16.055h-20.774V92.675h2.3v-5a.66.66,0,1,1,1.32,0v5h13.453v-5a.66.66,0,1,1,1.32,0v5h2.386Z" transform="translate(-1146.463 -86.019)"/>
    <path id="Path_337" data-name="Path 337" d="M1155.479,108.828a1.456,1.456,0,1,0,1.456,1.457A1.456,1.456,0,0,0,1155.479,108.828Z" transform="translate(-1150.271 -97.508)"/>
  </g>
</svg>
