<svg xmlns="http://www.w3.org/2000/svg" width="89.353" height="93.072" viewBox="0 0 89.353 93.072">
  <path id="Path_498" data-name="Path 498" d="M1311.085,115.383a22.347,22.347,0,0,0-44.242,4.48A22.346,22.346,0,1,0,1244.5,142.2h-2.046a24.374,24.374,0,0,1,21.683,13.25V190.6h5.421V155.454a24.371,24.371,0,0,1,21.685-13.255h-2.051A22.36,22.36,0,0,0,1311.085,115.383Zm-21.9,21.4v.07a29.823,29.823,0,0,0-22.345,12.621A29.811,29.811,0,0,0,1244.5,136.85v-.07a16.923,16.923,0,1,1,16.239-21.7,28.2,28.2,0,0,0,4.034,8.214,10.665,10.665,0,0,1,2.071,6.209,10.748,10.748,0,0,1,2.208-6.4,23.378,23.378,0,0,0,3.8-7.67,16.924,16.924,0,1,1,16.338,21.342Z" transform="translate(-1222.167 -97.526)"/>
</svg>
