<svg xmlns="http://www.w3.org/2000/svg" width="173.858" height="34.846" viewBox="0 0 173.858 34.846">
  <g id="Symbol_34_1" data-name="Symbol 34 – 1" transform="translate(-907 -444)">
    <line id="Line_107" data-name="Line 107" x2="162.358" transform="translate(918.5 461.35)" stroke="#000" stroke-miterlimit="10" stroke-width="0.75"/>
    <g id="Rectangle_863" data-name="Rectangle 863" transform="translate(907 444)" stroke="#a3a3a3" stroke-width="0.5">
      <path d="M0,0H32.544a17,17,0,0,1,17,17v.846a17,17,0,0,1-17,17H0a0,0,0,0,1,0,0V0A0,0,0,0,1,0,0Z" stroke="none"/>
      <path d="M.5.25H32.544A16.75,16.75,0,0,1,49.294,17v.846A16.75,16.75,0,0,1,32.544,34.6H.5a.25.25,0,0,1-.25-.25V.5A.25.25,0,0,1,.5.25Z" fill="none"/>
    </g>
    <g id="Group_278" data-name="Group 278" transform="translate(442.599 203.096)">
      <path id="Path_385" data-name="Path 385" d="M494.746,257.574l3.434-3.434a3.087,3.087,0,1,1,4.366,4.366l-3.434,3.434a.495.495,0,1,0,.7.7l3.434-3.434a4.077,4.077,0,1,0-5.766-5.766l-3.434,3.434a.5.5,0,1,0,.7.7Z" transform="translate(-9.141 -2.497)" fill="#fff"/>
      <path id="Path_386" data-name="Path 386" d="M484.833,275.926a4.067,4.067,0,0,0,2.885-1.194l3.434-3.434a.5.5,0,1,0-.7-.7l-3.434,3.434a3.087,3.087,0,1,1-4.365-4.365l3.434-3.434a.495.495,0,0,0-.7-.7l-3.434,3.434a4.074,4.074,0,0,0,2.881,6.959Z" transform="translate(-2.505 -9.133)" fill="#fff"/>
      <path id="Path_387" data-name="Path 387" d="M493.341,269.484a.492.492,0,0,0,.35-.145l4.014-4.014a.5.5,0,1,0-.7-.7l-4.013,4.014a.5.5,0,0,0,.35.845Z" transform="translate(-8.609 -8.675)" fill="#fff"/>
      <path id="Path_388" data-name="Path 388" d="M475.8,247.3v21.958h21.958V247.3Zm20.968,20.968H476.786V248.289h19.978Z" fill="#fff"/>
    </g>
  </g>
</svg>
