<svg xmlns="http://www.w3.org/2000/svg" width="205.436" height="34.53" viewBox="0 0 205.436 34.53">
  <g id="Group_292" data-name="Group 292" transform="translate(-127.591 -463.682)">
    <path id="Path_350" data-name="Path 350" d="M127.591,465.193h1.9a3.614,3.614,0,0,1,3.312,3.318v28.815h-5.215v.657h15.127v-.657H137.5V481.071h3.805a5.631,5.631,0,0,1,2.748.588,4.671,4.671,0,0,1,1.691,1.574,8.207,8.207,0,0,1,.987,2.255q.352,1.268.681,2.631h.517v-14.61h-.517a26.023,26.023,0,0,1-1.057,3.453,6.266,6.266,0,0,1-1.315,2.114,4.01,4.01,0,0,1-1.856,1.057,10.566,10.566,0,0,1-2.631.282H137.5V465.193h5.344c6.415,0,11.615,4.543,11.615,10.958V464.535H127.591Z" transform="translate(0 -0.43)"/>
    <path id="Path_351" data-name="Path 351" d="M208.9,491.325h-7.657v.658h3.618v18.839h-3.618v.658h11.275v-.658H208.9Z" transform="translate(-37.1 -13.925)"/>
    <path id="Path_352" data-name="Path 352" d="M251.118,463.683h-7.657v.658h3.618V496.9h-3.618v.658h11.275V496.9h-3.618Z" transform="translate(-58.368 0)"/>
    <path id="Path_353" data-name="Path 353" d="M293.337,463.683H285.68v.658H289.3V496.9H285.68v.658h11.275V496.9h-3.617Z" transform="translate(-79.635 0)"/>
    <path id="Path_354" data-name="Path 354" d="M328.089,465.193H333.3v32.133h-5.215v.657h15.127v-.657H338V481.071h3.805a5.631,5.631,0,0,1,2.748.588,4.668,4.668,0,0,1,1.691,1.574,8.211,8.211,0,0,1,.987,2.255q.353,1.268.681,2.631h.517v-14.61h-.517a26.044,26.044,0,0,1-1.057,3.453,6.267,6.267,0,0,1-1.316,2.114,4.01,4.01,0,0,1-1.855,1.057,10.563,10.563,0,0,1-2.631.282H338V465.193h5.343c6.415,0,11.615,4.543,11.615,10.958V464.535H328.089Z" transform="translate(-100.999 -0.43)"/>
    <path id="Path_355" data-name="Path 355" d="M402.129,499.208H416.6a9.62,9.62,0,0,0-.869-4.322,8.2,8.2,0,0,0-4.956-4.322,9.319,9.319,0,0,0-6.953.447,11.289,11.289,0,0,0-5.614,5.872,10.239,10.239,0,0,0-.822,4.017,11.362,11.362,0,0,0,.8,4.345,9.768,9.768,0,0,0,2.255,3.359,9.924,9.924,0,0,0,3.453,2.161,12.246,12.246,0,0,0,4.346.752,8.691,8.691,0,0,0,3.829-.728,7.69,7.69,0,0,0,2.349-1.691,6.811,6.811,0,0,0,1.268-1.926,13.58,13.58,0,0,0,.54-1.48l-.7-.141q-.188.564-.564,1.456a6.412,6.412,0,0,1-1.151,1.762,6.25,6.25,0,0,1-2.114,1.48,8.232,8.232,0,0,1-3.406.611,5.563,5.563,0,0,1-3.312-.893,5.681,5.681,0,0,1-1.879-2.255,9.713,9.713,0,0,1-.822-3.053,29.318,29.318,0,0,1-.188-3.242c0-.5.007-.916.023-1.245S402.129,499.522,402.129,499.208Zm.447-3.617a8.808,8.808,0,0,1,.916-2.49,4.667,4.667,0,0,1,1.644-1.715,4.958,4.958,0,0,1,2.631-.634,5.258,5.258,0,0,1,1.668.259,2.989,2.989,0,0,1,1.315.869,4.3,4.3,0,0,1,.846,1.644,9.5,9.5,0,0,1,.305,2.631v1.174a8.711,8.711,0,0,1-.094,1.222h-9.63A19.477,19.477,0,0,1,402.575,495.591Z" transform="translate(-135.905 -13.305)"/>
    <path id="Path_356" data-name="Path 356" d="M463.662,499.208h14.469a9.618,9.618,0,0,0-.87-4.322,8.2,8.2,0,0,0-4.956-4.322,9.319,9.319,0,0,0-6.953.447,11.289,11.289,0,0,0-5.614,5.872,10.236,10.236,0,0,0-.822,4.017,11.361,11.361,0,0,0,.8,4.345,9.767,9.767,0,0,0,2.255,3.359,9.921,9.921,0,0,0,3.453,2.161,12.245,12.245,0,0,0,4.346.752,8.69,8.69,0,0,0,3.829-.728,7.689,7.689,0,0,0,2.349-1.691,6.809,6.809,0,0,0,1.269-1.926,13.522,13.522,0,0,0,.54-1.48l-.7-.141q-.188.564-.564,1.456a6.4,6.4,0,0,1-1.151,1.762,6.243,6.243,0,0,1-2.114,1.48,8.232,8.232,0,0,1-3.406.611,5.564,5.564,0,0,1-3.312-.893,5.685,5.685,0,0,1-1.879-2.255,9.713,9.713,0,0,1-.822-3.053,29.289,29.289,0,0,1-.188-3.242q0-.751.023-1.245C463.653,499.842,463.662,499.522,463.662,499.208Zm.446-3.617a8.83,8.83,0,0,1,.916-2.49,4.672,4.672,0,0,1,1.644-1.715,4.958,4.958,0,0,1,2.631-.634,5.256,5.256,0,0,1,1.668.259,2.994,2.994,0,0,1,1.316.869,4.3,4.3,0,0,1,.846,1.644,9.5,9.5,0,0,1,.305,2.631v1.174a8.688,8.688,0,0,1-.094,1.222h-9.631A19.492,19.492,0,0,1,464.108,495.591Z" transform="translate(-166.902 -13.305)"/>
    <path id="Path_357" data-name="Path 357" d="M526.5,496.9V463.682h-7.658v.658h.463a3.615,3.615,0,0,1,3.155,3.584V496.9h-3.618v.657h11.275V496.9Z" transform="translate(-197.087)"/>
    <path id="Path_358" data-name="Path 358" d="M208.713,463.682a3.8,3.8,0,0,0,0,7.6c1.649,0,2.5-1.393,3.573-2.52a4.6,4.6,0,0,1,2.457-1.277,4.6,4.6,0,0,1-2.457-1.277C211.209,465.076,210.362,463.682,208.713,463.682Z" transform="translate(-38.952)"/>
  </g>
</svg>
