<svg xmlns="http://www.w3.org/2000/svg" width="210.544" height="73.899" viewBox="0 0 210.544 73.899">
  <defs>
    <style>
      .cls-1, .cls-5 {
        fill: none;
      }

      .cls-1 {
        stroke: #151515;
        stroke-width: 0.5px;
      }

      .cls-2 {
        font-size: 17px;
        font-family: BodoniSvtyTwoITCTT-Bold, "Bodoni 72";
      }

      .cls-2, .cls-3 {
        font-weight: 700;
        letter-spacing: 0.087em;
      }

      .cls-3 {
        font-size: 14px;
        font-family: Arial-BoldMT, Arial;
      }

      .cls-4 {
        stroke: none;
      }
    </style>
  </defs>
  <g id="Symbol_78_1" data-name="Symbol 78 – 1" transform="translate(-82 -454.744)">
    <g id="Rectangle_964" data-name="Rectangle 964" class="cls-1" transform="translate(82 485.798)">
      <rect class="cls-4" width="210.544" height="42.846" rx="21"/>
      <rect class="cls-5" x="0.25" y="0.25" width="210.044" height="42.346" rx="20.75"/>
    </g>
    <text id="Take_Care" data-name="Take Care" class="cls-2" transform="translate(158.284 514.676)"><tspan x="0" y="0">Take Care</tspan></text>
    <path id="Path_625" data-name="Path 625" d="M557.627,48.388a5.232,5.232,0,0,0-10.465,0v6.326h0V48.388a5.232,5.232,0,1,0-5.235,5.232h-.479a5.709,5.709,0,0,1,5.078,3.1v8.233h1.27V56.725a5.709,5.709,0,0,1,5.079-3.1H552.4A5.232,5.232,0,0,0,557.627,48.388Z" transform="translate(-403.164 450.352)"/>
    <g id="Symbol_67_6" data-name="Symbol 67 – 6" transform="translate(-12034 10498.482)">
      <path id="Path_571" data-name="Path 571" d="M948.665,27.085h.1a1.911,1.911,0,0,1-1.911-1.911H948.3a2.156,2.156,0,0,0,2.175-1.89,2.1,2.1,0,0,0-2.085-2.3H930.851a2.156,2.156,0,0,0-2.175,1.889,2.1,2.1,0,0,0,2.085,2.3h1.529a1.911,1.911,0,0,1-1.911,1.911h.1a1.817,1.817,0,0,0-1.817,1.817V42.8h21.816V28.9A1.817,1.817,0,0,0,948.665,27.085Zm.824,14.722H940.07V39a4.464,4.464,0,0,1,3.971-2.427h-.375a4.09,4.09,0,1,0-4.092-4.09V38.3h0V32.48a4.09,4.09,0,1,0-4.092,4.09h-.375A4.462,4.462,0,0,1,939.077,39v2.81h-9.419V28.9a.825.825,0,0,1,.824-.824,1,1,0,0,0,.145-.011,2.907,2.907,0,0,0,2.655-2.892.993.993,0,0,0-.993-.993h-1.529a1.1,1.1,0,0,1-1.1-1.214,1.161,1.161,0,0,1,1.187-.991h17.536a1.1,1.1,0,0,1,1.1,1.214,1.162,1.162,0,0,1-1.188.991h-1.439a.993.993,0,0,0-.992.993,2.907,2.907,0,0,0,2.654,2.892,1.012,1.012,0,0,0,.146.011.825.825,0,0,1,.824.824Z" transform="translate(11307.392 -10064.723)"/>
      <text id="Use_3" data-name="Use 3" class="cls-3" transform="translate(12185 -10025)"><tspan x="0" y="0">Use 3</tspan></text>
    </g>
  </g>
</svg>
